SplineFontDB: 3.0
FontName: Nika-Regular
FullName: Nika Regular
FamilyName: Nika
Weight: Regular
Copyright: Copyright (c) 2016 Copyright Holder Persian Font Store (info@font-store.ir), with Reserved Font Name "Nika"
UComments: "2015-5-13: Created with FontForge (http://fontforge.org)"
Version: Version:1.0.0;RFB:1.2.5;Building:2016-05-25 11:08:20.597103
FONDName: RITA
ItalicAngle: 0
UnderlinePosition: 500
UnderlineWidth: 59
Ascent: 800
Descent: 500
InvalidEm: 0
sfntRevision: 0x00010000
LayerCount: 2
Layer: 0 0 "Back" 1
Layer: 1 0 "Fore" 0
PreferredKerning: 4
XUID: [1021 828 -1901974348 32649]
StyleMap: 0x0040
FSType: 0
OS2Version: 0
OS2_WeightWidthSlopeOnly: 0
OS2_UseTypoMetrics: 0
CreationTime: 1431477301
ModificationTime: 1464158300
PfmFamily: 33
TTFWeight: 400
TTFWidth: 5
LineGap: 0
VLineGap: 0
Panose: 2 0 5 3 0 0 0 0 0 0
OS2TypoAscent: 800
OS2TypoAOffset: 0
OS2TypoDescent: -500
OS2TypoDOffset: 0
OS2TypoLinegap: 0
OS2WinAscent: 1100
OS2WinAOffset: 0
OS2WinDescent: 700
OS2WinDOffset: 0
HheadAscent: 1100
HheadAOffset: 0
HheadDescent: -700
HheadDOffset: 0
OS2SubXSize: 780
OS2SubYSize: 839
OS2SubXOff: -107
OS2SubYOff: 168
OS2SupXSize: 780
OS2SupYSize: 839
OS2SupXOff: 369
OS2SupYOff: 575
OS2StrikeYSize: 59
OS2StrikeYPos: 310
OS2Vendor: 'RITA'
OS2CodePages: 00000040.00000000
OS2UnicodeRanges: 80002003.80002000.00000008.00000000
MacStyle: 0
Lookup: 4 7 1 "'ccmp' Glyph Composition/Decomposition in Arabic lookup 5" { "'ccmp' Glyph Composition/Decomposition in Arabic lookup 5-1"  } ['ccmp' ('DFLT' <'dflt' > 'arab' <'dflt' > ) ]
Lookup: 1 9 0 "'isol' Isolated Forms in Latin lookup 1" { "'isol' Isolated Forms in Latin lookup 1-1"  } ['isol' ('DFLT' <'dflt' > 'arab' <'dflt' > ) ]
Lookup: 1 9 0 "'fina' Terminal Forms in Arabic lookup 3" { "'fina' Terminal Forms in Arabic lookup 3-1"  } ['fina' ('DFLT' <'dflt' > 'arab' <'dflt' > ) ]

StartChar: _.alef.isol
Encoding: 65536 -1 0
GlifName: _.alef.isol
Width: 231
VWidth: 1304
GlyphClass: 2
Flags: HMW
LayerCount: 2
Fore
SplineSet
75 720 m 0
 75 742 82 754 96 764 c 2
 133 795 l 2
 149 809 156 791 156 782 c 2
 156 60 l 2
 156 32 123 -20 106 -20 c 0
 100 -20 96 -14 96 -0 c 2
 75 715 l 2
 75 717 75 718 75 720 c 0
EndSplineSet
Colour: ffda6b
EndChar

StartChar: _.alef.fina
Encoding: 65537 -1 1
GlifName: _.alef.fina
Width: 276
VWidth: 1304
GlyphClass: 2
Flags: HMW
LayerCount: 2
Fore
SplineSet
75 720 m 0
 75 742 82 754 96 764 c 2
 133 795 l 2
 149 809 158 789 158 780 c 2
 158 184 l 2
 158 134 176 100 247 100 c 2
 276 100 l 1
 276 -0 l 1
 127 0 92 40 87 200 c 1
 75 715 l 2
 75 717 75 718 75 720 c 0
EndSplineSet
Colour: ffda6b
EndChar

StartChar: _.beh.isol
Encoding: 65540 -1 4
GlifName: _.beh.isol
Width: 953
VWidth: 1304
GlyphClass: 2
UnlinkRmOvrlpSave: 1
Flags: HMW
LayerCount: 2
Fore
SplineSet
75 182 m 0
 75 225 85 275 101 335 c 0
 103 347 110 349 119 348 c 1
 137 343 l 2
 148 341 143 326 141 317 c 0
 132 282 128 253 128 228 c 0
 128 214 129 202 132 191 c 0
 150 115 271 90 406 90 c 0
 409 90 412 90 415 90 c 0
 569 90 741 121 804 144 c 1
 803 185 778 271 756 326 c 0
 750 341 758 348 764 353 c 2
 814 396 l 2
 821 402 831 401 836 389 c 0
 866 302 878 234 878 181 c 0
 878 115 853 65 800 45 c 0
 730 20 566 -14 412 -15 c 0
 201 -15 75 29 75 182 c 0
EndSplineSet
Colour: ffda6b
EndChar

StartChar: _.beh.fina
Encoding: 65541 -1 5
GlifName: _.beh.fina
Width: 1033
VWidth: 1304
GlyphClass: 2
UnlinkRmOvrlpSave: 1
Flags: HMW
LayerCount: 2
Fore
SplineSet
75 182 m 0
 75 225 85 275 101 335 c 0
 103 347 110 349 119 347 c 0
 138 341 146 341 146 330 c 0
 146 326 146 321 144 315 c 0
 134 277 128 247 128 222 c 0
 128 211 130 201 132 191 c 0
 150 115 271 90 406 90 c 0
 409 90 412 90 415 90 c 0
 546 90 726 115 804 144 c 1
 813 147 l 1
 809 172 807 201 807 232 c 0
 807 243 807 255 807 266 c 0
 807 273 808 285 820 292 c 2
 849 309 l 2
 865 319 868 301 868 290 c 0
 868 164 880 100 1008 100 c 2
 1033 100 l 1
 1033 -0 l 1
 1009 -0 l 2
 919 0 868 24 839 69 c 1
 829 59 816 51 800 45 c 0
 686 4 526 -14 412 -15 c 0
 201 -15 75 29 75 182 c 0
EndSplineSet
Colour: ffda6b
EndChar

StartChar: _.beh.medi
Encoding: 65542 -1 6
GlifName: _.beh.medi
Width: 435
VWidth: 1304
GlyphClass: 2
UnlinkRmOvrlpSave: 1
Flags: HMW
LayerCount: 2
Fore
SplineSet
-50 50 m 0
 -50 75 -26 100 -1 100 c 2
 48 100 l 2
 126 100 187 112 215 146 c 1
 211 172 209 201 209 234 c 0
 209 244 210 255 210 266 c 0
 210 273 210 285 222 292 c 2
 252 309 l 2
 269 319 270 301 270 290 c 0
 270 164 282 100 410 100 c 2
 435 100 l 1
 435 -0 l 1
 412 -0 l 2
 330 0 279 21 249 59 c 1
 205 10 134 0 42 -0 c 2
 -1 -0 l 1
 -26 1 -50 24 -50 50 c 0
EndSplineSet
Colour: ffda6b
EndChar

StartChar: _.beh.init
Encoding: 65543 -1 7
GlifName: _.beh.init
Width: 380
VWidth: 1197
GlyphClass: 1
UnlinkRmOvrlpSave: 1
Flags: HMW
LayerCount: 2
Fore
SplineSet
280 187 m 0
 280 48 164 0 79 -0 c 2
 -1 -0 l 2
 -25 0 -50 24 -50 49 c 0
 -50 76 -27 100 -1 100 c 2
 79 100 l 2
 123 100 185 114 206 134 c 1
 206 135 206 137 206 138 c 0
 206 175 181 264 159 322 c 0
 153 340 156 345 170 357 c 2
 216 396 l 2
 227 405 233 401 238 389 c 0
 266 305 280 239 280 187 c 0
EndSplineSet
Colour: ffda6b
EndChar

StartChar: _.heh.isol
Encoding: 65544 -1 8
GlifName: _.heh.isol
Width: 754
VWidth: 1304
GlyphClass: 1
UnlinkRmOvrlpSave: 1
Flags: HMW
LayerCount: 2
Fore
SplineSet
213 420 m 0
 333 420 498 320 655 320 c 2
 670 320 l 2
 686 320 677 300 675 293 c 2
 657 236 l 1
 655 224 651 220 634 220 c 0
 620 220 607 220 592 221 c 0
 330 196 134 28 134 -107 c 0
 134 -202 229 -288 434 -288 c 0
 483 -288 539 -283 601 -272 c 0
 610 -271 624 -264 622 -278 c 1
 622 -297 l 1
 563 -349 469 -382 374 -382 c 0
 329 -382 284 -375 241 -358 c 0
 113 -308 75 -200 75 -118 c 0
 75 30 192 196 389 274 c 1
 323 298 261 320 210 320 c 0
 209 320 206 320 205 320 c 0
 173 320 150 309 123 260 c 0
 114 244 108 239 98 244 c 2
 86 251 l 2
 76 256 75 265 84 282 c 0
 102 314 147 420 213 420 c 0
EndSplineSet
Colour: ffda6b
EndChar

StartChar: _.heh.fina
Encoding: 65545 -1 9
GlifName: _.heh.fina
Width: 769
VWidth: 1304
GlyphClass: 1
UnlinkRmOvrlpSave: 1
Flags: HMW
LayerCount: 2
Fore
SplineSet
213 420 m 0
 333 420 498 320 655 320 c 2
 670 320 l 2
 686 320 677 300 675 293 c 2
 657 236 l 1
 655 224 651 220 634 220 c 0
 620 220 607 220 592 221 c 0
 581 220 570 219 559 218 c 1
 566 182 l 1
 577 120 649 100 750 100 c 2
 769 100 l 1
 769 0 l 1
 756 0 l 2
 617 0 527 24 505 170 c 1
 498 205 l 1
 284 156 134 12 134 -107 c 0
 134 -202 229 -288 434 -288 c 0
 483 -288 539 -283 601 -272 c 0
 610 -271 624 -264 622 -278 c 1
 622 -297 l 1
 563 -349 469 -382 374 -382 c 0
 329 -382 284 -375 241 -358 c 0
 113 -308 75 -200 75 -118 c 0
 75 30 192 196 389 274 c 1
 323 298 261 320 210 320 c 0
 209 320 206 320 205 320 c 0
 173 320 150 309 123 260 c 0
 114 244 108 239 98 244 c 2
 86 251 l 2
 76 256 75 265 84 282 c 0
 102 314 147 420 213 420 c 0
EndSplineSet
Colour: ffda6b
EndChar

StartChar: _.heh.medi
Encoding: 65546 -1 10
GlifName: _.heh.medi
Width: 783
VWidth: 1304
GlyphClass: 1
UnlinkRmOvrlpSave: 1
Flags: HMW
LayerCount: 2
Fore
SplineSet
-50 49 m 0
 -50 76 -27 100 -1 100 c 2
 108 100 l 2
 326 100 388 191 477 256 c 1
 383 292 290 341 220 341 c 0
 189 340 164 328 137 279 c 0
 128 263 123 258 113 264 c 2
 97 274 l 2
 87 279 87 287 94 304 c 0
 109 340 148 441 228 441 c 0
 347 441 495 320 669 320 c 2
 684 320 l 2
 700 320 691 300 689 293 c 2
 671 236 l 2
 669 225 666 220 651 220 c 0
 623 219 597 215 575 209 c 1
 580 182 l 2
 591 120 663 100 764 100 c 2
 783 100 l 1
 783 -0 l 1
 770 -0 l 2
 631 0 541 24 519 170 c 1
 519 183 l 1
 413 120 353 0 109 -0 c 2
 -1 -0 l 2
 -25 0 -50 24 -50 49 c 0
EndSplineSet
Colour: ffda6b
EndChar

StartChar: _.heh.init
Encoding: 65547 -1 11
GlifName: _.heh.init
Width: 793
VWidth: 1304
GlyphClass: 1
UnlinkRmOvrlpSave: 1
Flags: HMW
LayerCount: 2
Fore
SplineSet
-50 49 m 0
 -50 76 -27 100 -1 100 c 2
 108 100 l 2
 326 100 388 191 477 256 c 1
 383 292 290 341 220 341 c 0
 189 340 164 328 137 279 c 0
 128 263 123 258 113 264 c 2
 97 274 l 2
 87 279 87 287 94 304 c 0
 109 340 148 441 228 441 c 0
 347 441 495 320 669 320 c 2
 684 320 l 2
 700 320 691 300 689 293 c 2
 671 236 l 2
 669 225 666 220 651 220 c 0
 428 216 435 0 109 -0 c 2
 -1 -0 l 2
 -25 0 -50 24 -50 49 c 0
EndSplineSet
Colour: ffda6b
EndChar

StartChar: _.sin.isol
Encoding: 65548 -1 12
GlifName: _.sin.isol
Width: 1332
VWidth: 1304
GlyphClass: 1
UnlinkRmOvrlpSave: 1
Flags: HMW
LayerCount: 2
Fore
SplineSet
1257 187 m 0
 1257 48 1141 0 1056 -0 c 0
 993 0 950 16 901 54 c 1
 859 17 804 0 758 -0 c 0
 730 0 703 7 677 22 c 1
 678 15 677 7 677 -0 c 0
 667 -187 485 -298 325 -299 c 0
 197 -299 75 -240 75 -85 c 0
 75 -28 91 42 130 127 c 0
 134 134 138 139 147 134 c 1
 170 124 l 2
 177 120 177 115 173 108 c 0
 150 52 136 -1 136 -47 c 0
 136 -137 190 -198 329 -198 c 0
 448 -198 579 -135 605 -36 c 1
 604 38 568 121 538 180 c 0
 534 190 537 200 546 207 c 2
 596 250 l 2
 616 267 630 216 635 203 c 0
 639 196 642 189 644 182 c 0
 667 130 708 100 770 100 c 0
 839 100 876 134 903 193 c 2
 933 258 l 2
 938 268 944 273 955 269 c 2
 986 257 l 2
 1001 252 999 242 997 235 c 2
 953 130 l 1
 986 110 1023 101 1056 100 c 0
 1100 100 1162 114 1183 134 c 1
 1185 168 1158 266 1135 326 c 0
 1129 341 1137 348 1143 353 c 2
 1193 396 l 2
 1200 402 1210 401 1215 389 c 0
 1243 305 1257 239 1257 187 c 0
EndSplineSet
Colour: ffda6b
EndChar

StartChar: _.sin.fina
Encoding: 65549 -1 13
GlifName: _.sin.fina
Width: 1422
VWidth: 1304
GlyphClass: 1
UnlinkRmOvrlpSave: 1
Flags: HMW
LayerCount: 2
Fore
SplineSet
329 -198 m 0
 448 -198 579 -135 605 -36 c 1
 604 38 568 121 538 180 c 0
 534 190 537 200 546 207 c 2
 596 250 l 2
 616 267 630 216 635 203 c 0
 639 196 642 189 644 182 c 0
 667 130 708 100 770 100 c 0
 839 100 876 134 903 193 c 2
 933 258 l 2
 938 268 944 273 955 269 c 2
 986 257 l 2
 1001 252 999 242 997 235 c 2
 953 130 l 1
 986 110 1023 101 1056 100 c 0
 1100 100 1162 114 1183 134 c 1
 1201 146 l 1
 1197 172 1196 201 1196 234 c 0
 1196 244 1196 255 1196 266 c 0
 1196 273 1197 285 1209 292 c 2
 1238 309 l 2
 1255 319 1257 301 1257 290 c 0
 1257 164 1269 100 1397 100 c 2
 1422 100 l 1
 1422 -0 l 1
 1398 -0 l 2
 1303 0 1251 27 1223 77 c 1
 1182 20 1113 0 1056 -0 c 0
 993 0 950 16 901 54 c 1
 859 17 804 0 758 -0 c 0
 730 0 703 7 677 22 c 1
 678 15 677 7 677 -0 c 0
 667 -187 485 -298 325 -299 c 0
 197 -299 75 -240 75 -85 c 0
 75 -28 91 42 130 127 c 0
 134 134 138 139 147 134 c 1
 170 124 l 2
 177 120 177 115 173 108 c 0
 150 52 136 -1 136 -47 c 0
 136 -137 190 -198 329 -198 c 0
EndSplineSet
Colour: ffda6b
EndChar

StartChar: _.sin.medi
Encoding: 65550 -1 14
GlifName: _.sin.medi
Width: 1015
VWidth: 1304
GlyphClass: 1
UnlinkRmOvrlpSave: 1
Flags: HMW
LayerCount: 2
Fore
SplineSet
-50 49 m 0
 -50 76 -27 100 -1 100 c 2
 30 100 l 2
 130 100 172 121 210 200 c 1
 254 288 l 2
 259 299 267 303 279 298 c 2
 307 285 l 2
 321 280 320 272 313 256 c 2
 258 139 l 1
 284 114 312 100 364 100 c 0
 433 100 470 134 497 193 c 2
 526 258 l 2
 531 268 537 273 548 269 c 2
 579 257 l 2
 594 252 592 242 590 235 c 2
 546 130 l 1
 579 110 616 101 649 100 c 0
 693 100 755 114 776 134 c 1
 795 146 l 1
 791 172 789 201 789 234 c 0
 789 244 790 255 790 266 c 0
 790 273 790 285 802 292 c 2
 831 309 l 2
 848 319 850 301 850 290 c 0
 850 164 862 100 990 100 c 2
 1015 100 l 1
 1015 -0 l 1
 992 -0 l 2
 897 0 845 27 817 77 c 1
 776 20 706 0 649 -0 c 0
 586 0 543 16 494 54 c 1
 452 17 397 0 351 -0 c 0
 294 0 245 25 207 63 c 1
 163 14 109 0 30 -0 c 2
 -1 -0 l 2
 -25 0 -50 24 -50 49 c 0
EndSplineSet
Colour: ffda6b
EndChar

StartChar: _.sin.init
Encoding: 65551 -1 15
GlifName: _.sin.init
Width: 950
VWidth: 1304
GlyphClass: 1
UnlinkRmOvrlpSave: 1
Flags: HMW
LayerCount: 2
Fore
SplineSet
850 187 m 0
 850 48 734 0 649 -0 c 0
 586 0 543 16 494 54 c 1
 452 17 397 0 351 -0 c 0
 294 0 245 25 207 63 c 1
 163 14 109 0 30 -0 c 2
 -1 -0 l 2
 -25 0 -50 24 -50 49 c 0
 -50 76 -27 100 -1 100 c 2
 30 100 l 2
 130 100 172 121 210 200 c 2
 254 288 l 2
 258 296 263 300 270 300 c 0
 273 300 276 299 279 298 c 2
 307 285 l 2
 315 282 318 279 318 273 c 0
 318 269 316 263 313 256 c 2
 258 139 l 1
 284 114 312 100 364 100 c 0
 433 100 470 134 497 193 c 2
 526 258 l 2
 530 266 534 270 541 270 c 0
 543 270 545 270 548 269 c 2
 579 257 l 2
 589 254 591 248 591 243 c 0
 591 240 591 237 590 235 c 2
 546 130 l 1
 579 110 616 101 649 100 c 0
 693 100 755 114 776 134 c 1
 776 138 l 2
 776 175 750 268 728 326 c 0
 727 329 726 332 726 335 c 0
 726 344 732 349 737 353 c 2
 786 396 l 2
 789 398 792 400 795 400 c 0
 800 400 805 396 808 389 c 0
 836 305 850 239 850 187 c 0
EndSplineSet
Colour: ffda6b
EndChar

StartChar: _.sad.isol
Encoding: 65552 -1 16
GlifName: _.sad.isol
Width: 1347
VWidth: 1304
GlyphClass: 1
UnlinkRmOvrlpSave: 1
Flags: HMW
LayerCount: 2
Fore
SplineSet
678 24 m 1
 678 -180 495 -298 325 -299 c 0
 197 -299 75 -240 75 -85 c 0
 75 -28 91 42 130 127 c 0
 134 134 139 139 149 134 c 2
 170 124 l 2
 177 120 177 115 173 108 c 0
 150 52 136 0 136 -46 c 0
 136 -136 190 -198 329 -198 c 0
 448 -198 579 -135 607 -36 c 1
 606 38 567 121 539 180 c 0
 534 190 537 200 546 207 c 2
 596 250 l 2
 606 259 616 249 618 242 c 0
 627 224 635 205 642 187 c 0
 653 159 673 135 698 119 c 1
 779 222 891 392 1037 406 c 0
 1045 407 1054 407 1062 407 c 0
 1158 407 1223 355 1253 300 c 0
 1267 273 1272 247 1272 222 c 0
 1272 214 1271 205 1270 197 c 0
 1264 165 1242 109 1211 86 c 0
 1116 16 960 -20 849 -20 c 0
 776 -20 720 -4 678 24 c 1
1193 160 m 1
 1183 233 1120 299 1018 299 c 0
 904 299 820 195 743 96 c 1
 771 86 802 81 837 81 c 0
 841 81 845 81 849 81 c 0
 955 81 1093 117 1193 160 c 1
EndSplineSet
Colour: ffda6b
EndChar

StartChar: _.sad.fina
Encoding: 65553 -1 17
GlifName: _.sad.fina
Width: 1377
VWidth: 1304
GlyphClass: 1
UnlinkRmOvrlpSave: 1
Flags: HMW
LayerCount: 2
Fore
SplineSet
678 24 m 1
 678 -180 495 -298 325 -299 c 0
 197 -299 75 -240 75 -85 c 0
 75 -28 91 42 130 127 c 0
 134 134 139 139 149 134 c 2
 170 124 l 2
 177 120 177 115 173 108 c 0
 150 52 136 0 136 -46 c 0
 136 -136 190 -198 329 -198 c 0
 448 -198 579 -135 607 -36 c 1
 606 38 567 121 539 180 c 0
 534 190 537 200 546 207 c 2
 596 250 l 2
 606 259 616 249 618 242 c 0
 627 224 635 205 642 187 c 0
 653 159 673 135 698 119 c 1
 779 222 891 392 1037 406 c 0
 1045 407 1054 407 1062 407 c 0
 1158 407 1223 355 1253 300 c 0
 1267 273 1272 247 1272 222 c 0
 1272 186 1264 164 1247 133 c 1
 1270 108 1305 100 1351 100 c 2
 1377 100 l 1
 1377 0 l 1
 1348 0 l 2
 1267 0 1214 25 1183 68 c 1
 1087 10 950 -20 849 -20 c 0
 776 -20 720 -4 678 24 c 1
1193 160 m 1
 1183 233 1120 299 1018 299 c 0
 904 299 820 195 743 96 c 1
 771 86 802 81 837 81 c 0
 841 81 845 81 849 81 c 0
 955 81 1093 117 1193 160 c 1
EndSplineSet
Colour: ffda6b
EndChar

StartChar: _.sad.medi
Encoding: 65554 -1 18
GlifName: _.sad.medi
Width: 923
VWidth: 1304
GlyphClass: 1
UnlinkRmOvrlpSave: 1
Flags: HMW
LayerCount: 2
Fore
SplineSet
817 222 m 0
 817 186 808 163 793 132 c 1
 816 109 851 100 897 100 c 2
 923 100 l 1
 923 -0 l 1
 893 -0 l 2
 812 0 759 25 728 68 c 1
 632 10 495 -20 394 -20 c 0
 303 -20 235 6 188 49 c 1
 157 19 109 0 28 -0 c 2
 0 -0 l 2
 -25 0 -50 24 -50 50 c 0
 -50 76 -26 100 0 100 c 0
 4 100 9 100 14 100 c 0
 55 100 99 100 137 120 c 1
 120 157 112 199 111 246 c 0
 111 258 115 262 122 266 c 1
 153 276 l 2
 163 278 172 279 172 267 c 0
 174 201 200 151 244 120 c 1
 325 223 437 392 583 406 c 0
 591 407 599 407 607 407 c 0
 703 407 768 355 798 300 c 0
 812 273 817 247 817 222 c 0
738 160 m 1
 728 233 665 299 563 299 c 0
 449 299 367 194 290 97 c 1
 317 87 350 81 385 81 c 0
 388 81 391 81 394 81 c 0
 500 81 638 117 738 160 c 1
EndSplineSet
Colour: ffda6b
EndChar

StartChar: _.sad.init
Encoding: 65555 -1 19
GlifName: _.sad.init
Width: 917
VWidth: 1304
GlyphClass: 1
UnlinkRmOvrlpSave: 1
Flags: HMW
LayerCount: 2
Fore
SplineSet
-50 50 m 0
 -50 76 -26 100 0 100 c 0
 4 100 9 100 14 100 c 0
 55 100 99 100 137 120 c 1
 120 157 112 199 111 246 c 0
 111 258 115 262 122 266 c 1
 153 276 l 2
 163 278 172 279 172 267 c 0
 174 201 200 151 244 120 c 1
 325 223 437 392 583 406 c 0
 591 407 599 407 607 407 c 0
 703 407 768 355 798 300 c 0
 812 273 817 247 817 222 c 0
 817 214 816 205 815 197 c 0
 809 165 789 111 756 86 c 0
 661 16 505 -20 394 -20 c 0
 303 -20 235 6 188 49 c 1
 157 19 109 0 28 -0 c 2
 0 -0 l 2
 -25 0 -50 24 -50 50 c 0
738 160 m 1
 728 233 665 299 563 299 c 0
 449 299 367 194 290 97 c 1
 317 87 350 81 385 81 c 0
 388 81 391 81 394 81 c 0
 500 81 638 117 738 160 c 1
EndSplineSet
Colour: ffda6b
EndChar

StartChar: _.ta.isol
Encoding: 65556 -1 20
GlifName: _.ta.isol
Width: 874
VWidth: 1304
GlyphClass: 1
UnlinkRmOvrlpSave: 1
Flags: HMW
LayerCount: 2
Fore
SplineSet
362 287 m 1
 425 354 493 407 590 407 c 0
 686 407 751 355 781 300 c 0
 794 274 799 249 799 224 c 0
 799 186 783 144 741 107 c 1
 644 39 505 0 379 0 c 0
 252 0 172 16 88 54 c 0
 79 58 72 65 77 79 c 2
 100 138 l 2
 106 153 120 145 131 140 c 0
 159 128 186 119 218 112 c 1
 222 117 226 120 230 125 c 0
 235 132 242 141 248 148 c 0
 275 189 289 239 289 321 c 0
 289 461 277 614 265 718 c 0
 264 725 264 731 264 735 c 0
 264 746 267 749 277 759 c 2
 319 795 l 2
 326 802 340 801 341 789 c 0
 355 691 366 509 366 349 c 0
 366 326 364 307 362 287 c 1
717 177 m 1
 701 244 638 299 545 299 c 0
 434 299 352 199 277 103 c 1
 307 101 340 100 379 100 c 0
 486 101 619 135 717 177 c 1
EndSplineSet
Colour: ffda6b
EndChar

StartChar: _.ta.fina
Encoding: 65557 -1 21
GlifName: _.ta.fina
Width: 905
VWidth: 1304
GlyphClass: 1
UnlinkRmOvrlpSave: 1
Flags: HMW
LayerCount: 2
Fore
SplineSet
799 224 m 0
 799 196 791 169 770 138 c 1
 793 111 829 100 879 100 c 2
 905 100 l 1
 905 0 l 1
 876 0 l 2
 786 0 731 30 701 82 c 1
 609 29 489 0 379 0 c 0
 252 0 172 16 88 54 c 0
 79 58 72 65 77 79 c 2
 100 138 l 2
 106 153 120 145 131 140 c 0
 159 128 186 119 218 112 c 1
 222 117 226 120 230 125 c 0
 235 132 242 141 248 148 c 0
 275 189 289 239 289 321 c 0
 289 461 277 614 265 718 c 0
 264 725 264 731 264 735 c 0
 264 746 267 749 277 759 c 2
 319 795 l 2
 326 802 340 801 341 789 c 0
 355 691 366 509 366 349 c 0
 366 326 364 307 362 287 c 1
 425 354 493 407 590 407 c 0
 686 407 751 355 781 300 c 0
 794 274 799 249 799 224 c 0
717 177 m 1
 701 244 638 299 545 299 c 0
 434 299 352 199 277 103 c 1
 307 101 340 100 379 100 c 0
 486 101 619 135 717 177 c 1
EndSplineSet
Colour: ffda6b
EndChar

StartChar: _.ta.medi
Encoding: 65558 -1 22
GlifName: _.ta.medi
Width: 799
VWidth: 1304
GlyphClass: 1
UnlinkRmOvrlpSave: 1
Flags: HMW
LayerCount: 2
Fore
SplineSet
694 224 m 0
 694 196 685 169 664 138 c 1
 687 111 724 100 774 100 c 2
 799 100 l 1
 799 -0 l 1
 770 -0 l 2
 680 0 625 31 595 81 c 1
 467 8 326 -2 182 -2 c 0
 126 -2 70 0 13 -0 c 2
 -1 -0 l 2
 -26 0 -50 24 -50 50 c 0
 -50 76 -26 100 0 100 c 2
 21 100 l 2
 79 100 103 105 141 148 c 1
 168 189 183 239 183 322 c 0
 183 462 171 614 159 718 c 0
 158 725 158 731 158 735 c 0
 158 746 162 749 172 759 c 2
 213 795 l 2
 220 802 235 801 236 789 c 0
 250 691 260 509 260 349 c 0
 260 326 259 307 257 287 c 1
 320 354 387 407 484 407 c 0
 580 407 645 355 675 300 c 0
 688 274 694 249 694 224 c 0
611 177 m 1
 595 244 533 299 440 299 c 0
 330 299 247 199 172 103 c 1
 175 100 l 1
 324 100 453 108 611 177 c 1
EndSplineSet
Colour: ffda6b
EndChar

StartChar: _.ta.init
Encoding: 65559 -1 23
GlifName: _.ta.init
Width: 794
VWidth: 1304
GlyphClass: 1
UnlinkRmOvrlpSave: 1
Flags: HMW
LayerCount: 2
Fore
SplineSet
257 287 m 1
 320 354 387 407 484 407 c 0
 580 407 645 355 675 300 c 0
 688 274 694 249 694 224 c 0
 694 186 678 144 636 107 c 1
 497 11 342 -2 184 -2 c 0
 127 -2 70 0 13 -0 c 2
 -1 -0 l 2
 -26 0 -50 24 -50 50 c 0
 -50 76 -26 100 0 100 c 2
 21 100 l 2
 79 100 103 105 141 148 c 1
 168 189 183 239 183 322 c 0
 183 462 171 614 159 718 c 0
 158 725 158 731 158 735 c 0
 158 746 162 749 172 759 c 2
 213 795 l 2
 220 802 235 801 236 789 c 0
 250 691 260 509 260 349 c 0
 260 326 259 307 257 287 c 1
611 177 m 1
 595 244 533 299 440 299 c 0
 330 299 247 199 172 103 c 1
 175 100 l 1
 324 100 453 108 611 177 c 1
EndSplineSet
Colour: ffda6b
EndChar

StartChar: _.ein.isol
Encoding: 65560 -1 24
GlifName: _.ein.isol
Width: 697
VWidth: 1304
GlyphClass: 1
UnlinkRmOvrlpSave: 1
Flags: HMW
LayerCount: 2
Fore
SplineSet
75 -118 m 0
 75 -10 139 111 252 198 c 1
 201 225 171 300 171 379 c 0
 171 458 202 540 276 578 c 1
 303 594 334 602 367 602 c 0
 425 602 487 579 538 537 c 0
 553 525 552 520 550 513 c 2
 540 487 l 1
 538 477 534 475 514 480 c 0
 478 489 439 498 399 498 c 0
 350 498 300 485 254 444 c 1
 258 364 290 294 338 252 c 1
 343 254 349 258 354 260 c 0
 414 286 513 314 595 326 c 0
 617 330 618 317 614 305 c 2
 601 258 l 2
 596 243 584 230 574 229 c 0
 515 218 407 182 352 152 c 0
 219 86 134 -17 134 -107 c 0
 134 -202 229 -288 434 -288 c 0
 483 -288 539 -283 601 -272 c 0
 610 -271 624 -264 622 -278 c 1
 622 -297 l 1
 563 -349 469 -382 374 -382 c 0
 329 -382 284 -375 241 -358 c 0
 113 -308 75 -200 75 -118 c 0
EndSplineSet
Colour: ffda6b
EndChar

StartChar: _.ein.fina
Encoding: 65561 -1 25
GlifName: _.ein.fina
Width: 660
VWidth: 1304
GlyphClass: 1
UnlinkRmOvrlpSave: 1
Flags: HMW
LayerCount: 2
Fore
SplineSet
359 500 m 0
 467 500 562 466 562 370 c 0
 562 352 558 330 550 311 c 0
 530 267 480 218 410 176 c 1
 465 132 531 100 617 100 c 2
 660 100 l 1
 660 -0 l 1
 615 -0 l 2
 477 0 397 59 332 128 c 1
 225 63 159 -28 159 -107 c 0
 159 -202 253 -288 458 -288 c 0
 507 -288 563 -283 625 -272 c 0
 634 -271 648 -264 646 -278 c 1
 646 -297 l 1
 587 -349 494 -382 399 -382 c 0
 354 -382 309 -375 266 -358 c 0
 138 -308 100 -200 100 -118 c 0
 100 -10 162 110 274 196 c 1
 217 262 164 324 75 342 c 1
 93 441 l 1
 151 473 256 500 359 500 c 0
208 380 m 1
 255 341 295 289 342 241 c 1
 348 241 l 1
 425 274 481 316 481 348 c 0
 481 354 479 359 475 364 c 0
 452 387 415 399 368 400 c 0
 315 400 258 391 208 380 c 1
EndSplineSet
Colour: ffda6b
EndChar

StartChar: _.ein.medi
Encoding: 65562 -1 26
GlifName: _.ein.medi
Width: 663
VWidth: 1304
GlyphClass: 1
UnlinkRmOvrlpSave: 1
Flags: HMW
LayerCount: 2
Fore
SplineSet
362 420 m 0
 470 420 565 385 565 289 c 0
 565 271 561 250 553 231 c 0
 537 194 501 155 449 119 c 1
 482 107 520 100 562 100 c 2
 663 100 l 1
 663 -0 l 1
 578 -0 l 2
 473 0 401 24 344 60 c 1
 264 24 170 0 78 -0 c 2
 0 -0 l 2
 -26 0 -50 24 -50 50 c 0
 -50 76 -26 100 0 100 c 2
 74 100 l 2
 131 100 196 112 258 129 c 1
 199 186 153 242 78 262 c 1
 96 361 l 1
 154 393 259 420 362 420 c 0
210 299 m 1
 253 260 298 207 357 166 c 1
 430 199 484 238 484 268 c 0
 484 274 482 279 478 284 c 0
 455 307 418 319 371 320 c 0
 318 320 260 311 210 299 c 1
EndSplineSet
Colour: ffda6b
EndChar

StartChar: _.ein.init
Encoding: 65563 -1 27
GlifName: _.ein.init
Width: 640
VWidth: 1304
GlyphClass: 1
UnlinkRmOvrlpSave: 1
Flags: HMW
LayerCount: 2
Fore
SplineSet
-50 50 m 0
 -50 75 -26 100 -1 100 c 2
 141 100 l 1
 107 136 87 197 87 260 c 0
 87 339 118 420 191 458 c 1
 219 474 251 482 285 482 c 0
 343 482 405 459 455 417 c 0
 470 405 469 402 467 393 c 2
 457 367 l 2
 455 358 451 355 431 361 c 0
 396 370 358 378 318 378 c 0
 269 378 217 366 170 324 c 1
 174 226 224 140 292 106 c 1
 350 113 408 130 505 164 c 0
 514 167 523 170 530 170 c 0
 536 170 540 167 540 159 c 0
 540 155 539 151 537 144 c 2
 524 98 l 2
 517 73 447 51 415 39 c 0
 320 3 266 0 90 -0 c 2
 -1 -0 l 1
 -26 1 -50 24 -50 50 c 0
EndSplineSet
Colour: ffda6b
EndChar

StartChar: _.feh.isol
Encoding: 65564 -1 28
GlifName: _.feh.isol
Width: 960
VWidth: 1304
GlyphClass: 1
UnlinkRmOvrlpSave: 1
Flags: HMW
LayerCount: 2
Fore
SplineSet
75 182 m 0
 75 225 85 275 101 335 c 0
 103 347 110 349 119 347 c 0
 138 341 146 341 146 330 c 0
 146 326 146 321 144 315 c 0
 134 277 128 247 128 222 c 0
 128 211 130 201 132 191 c 0
 150 115 271 90 406 90 c 0
 409 90 412 90 415 90 c 0
 545 90 724 115 803 144 c 1
 804 156 803 168 803 181 c 0
 803 199 802 217 801 236 c 1
 776 215 727 199 679 199 c 0
 577 199 539 265 539 340 c 0
 539 441 609 560 688 560 c 0
 692 561 697 561 701 561 c 0
 809 561 885 390 885 238 c 0
 885 214 883 190 879 167 c 0
 868 125 853 65 800 45 c 0
 686 4 526 -14 412 -15 c 0
 201 -15 75 29 75 182 c 0
788 317 m 1
 770 397 734 461 678 461 c 0
 647 461 601 406 601 360 c 0
 601 328 623 300 689 300 c 0
 690 300 690 300 691 300 c 0
 725 300 762 307 788 317 c 1
EndSplineSet
Colour: ffda6b
EndChar

StartChar: _.feh.fina
Encoding: 65565 -1 29
GlifName: _.feh.fina
Width: 1067
VWidth: 1304
GlyphClass: 1
UnlinkRmOvrlpSave: 1
Flags: HMW
LayerCount: 2
Fore
SplineSet
674 237 m 0
 674 345 778 460 841 460 c 0
 907 460 968 350 968 264 c 0
 966 204 940 153 899 114 c 1
 935 105 978 100 1028 100 c 2
 1067 100 l 1
 1067 -0 l 1
 1023 -0 l 2
 931 0 858 19 803 47 c 1
 803 45 l 1
 689 4 526 -14 412 -15 c 0
 201 -15 75 29 75 182 c 0
 75 225 85 275 101 335 c 0
 103 347 110 349 119 347 c 0
 138 341 146 341 146 330 c 0
 146 326 146 321 144 315 c 0
 134 277 128 247 128 222 c 0
 128 211 130 201 132 191 c 0
 150 115 271 90 406 90 c 0
 501 90 623 102 714 120 c 1
 687 156 674 197 674 237 c 0
731 245 m 0
 731 226 753 184 811 150 c 1
 870 178 907 212 907 230 c 0
 907 280 856 361 829 361 c 0
 803 361 739 297 732 251 c 0
 731 249 731 247 731 245 c 0
EndSplineSet
Colour: ffda6b
EndChar

StartChar: _.feh.medi
Encoding: 65566 -1 30
GlifName: _.feh.medi
Width: 500
VWidth: 1304
GlyphClass: 1
UnlinkRmOvrlpSave: 1
Flags: HMW
LayerCount: 2
Fore
SplineSet
107 237 m 0
 107 345 211 460 274 460 c 0
 340 460 401 350 401 264 c 0
 399 204 373 153 332 114 c 1
 368 105 411 100 461 100 c 2
 500 100 l 1
 500 -0 l 1
 456 -0 l 2
 362 0 288 18 233 48 c 1
 164 16 86 0 20 -0 c 2
 0 -0 l 2
 -25 0 -50 24 -50 50 c 0
 -49 76 -25 100 0 100 c 2
 20 100 l 2
 66 100 110 106 149 117 c 1
 120 154 107 196 107 237 c 0
262 361 m 0
 237 361 164 294 164 245 c 0
 164 226 186 184 243 150 c 1
 303 178 340 212 340 230 c 0
 340 280 289 361 262 361 c 0
EndSplineSet
Colour: ffda6b
EndChar

StartChar: _.feh.init
Encoding: 65567 -1 31
GlifName: _.feh.init
Width: 483
VWidth: 1304
GlyphClass: 1
UnlinkRmOvrlpSave: 1
Flags: HMW
LayerCount: 2
Fore
SplineSet
-50 49 m 0
 -50 75 -28 98 -3 100 c 1
 156 100 l 2
 224 100 268 113 300 129 c 1
 301 145 302 161 302 178 c 0
 302 197 302 216 300 236 c 1
 276 215 226 199 178 199 c 0
 77 199 38 264 38 339 c 0
 38 440 109 560 188 560 c 0
 192 560 196 561 200 561 c 0
 308 561 383 391 383 240 c 0
 383 216 381 193 377 170 c 1
 373 58 284 0 158 -0 c 2
 -1 -0 l 1
 -24 2 -50 25 -50 49 c 0
286 318 m 1
 267 397 232 461 176 461 c 0
 146 461 99 405 99 359 c 0
 99 327 122 300 187 300 c 0
 222 300 259 308 286 318 c 1
EndSplineSet
Colour: ffda6b
EndChar

StartChar: _.qaf.isol
Encoding: 65568 -1 32
GlifName: _.qaf.isol
Width: 751
VWidth: 1304
GlyphClass: 1
UnlinkRmOvrlpSave: 1
Flags: HMW
LayerCount: 2
Fore
SplineSet
75 -66 m 0
 75 -12 88 53 118 127 c 0
 122 134 126 139 136 134 c 2
 157 124 l 2
 164 120 165 117 161 108 c 0
 143 56 135 12 135 -25 c 0
 135 -154 228 -201 323 -201 c 0
 434 -200 561 -132 594 -51 c 1
 594 -44 594 -36 594 -28 c 0
 594 -7 593 14 591 36 c 1
 566 16 519 -1 470 -1 c 0
 369 0 330 64 330 139 c 0
 330 240 400 359 479 359 c 0
 483 360 488 360 492 360 c 0
 599 360 676 191 676 40 c 0
 676 34 675 29 675 23 c 0
 671 -183 485 -301 321 -301 c 0
 191 -301 75 -228 75 -66 c 0
391 160 m 0
 391 128 414 101 479 101 c 0
 480 101 480 101 481 101 c 0
 515 101 552 108 579 118 c 1
 559 197 523 261 468 261 c 0
 467 261 l 0
 437 261 391 206 391 160 c 0
EndSplineSet
Colour: ffda6b
EndChar

StartChar: _.qaf.fina
Encoding: 65569 -1 33
GlifName: _.qaf.fina
Width: 775
VWidth: 1304
GlyphClass: 1
UnlinkRmOvrlpSave: 1
Flags: HMW
LayerCount: 2
Fore
SplineSet
75 -66 m 0
 75 -12 88 53 118 127 c 0
 122 134 126 139 136 134 c 2
 157 124 l 2
 164 120 165 117 161 108 c 0
 143 56 135 12 135 -25 c 0
 135 -154 228 -201 323 -201 c 0
 434 -200 561 -132 594 -51 c 1
 594 -0 l 1
 470 -0 l 2
 369 0 330 65 330 140 c 0
 330 241 400 359 479 359 c 0
 483 360 488 360 492 360 c 0
 585 360 656 233 672 100 c 1
 775 100 l 1
 775 -0 l 1
 674 -0 l 1
 657 -191 479 -301 321 -301 c 0
 191 -301 75 -228 75 -66 c 0
391 159 m 0
 391 127 414 100 479 100 c 0
 480 100 480 100 481 100 c 2
 583 100 l 1
 566 187 528 261 468 261 c 0
 467 261 l 0
 437 261 391 205 391 159 c 0
EndSplineSet
Colour: ffda6b
EndChar

StartChar: _.kaf.isol.fa
Encoding: 65570 -1 34
GlifName: _.kaf.isol.fa
Width: 977
VWidth: 1304
GlyphClass: 1
UnlinkRmOvrlpSave: 1
Flags: HMW
LayerCount: 2
Fore
SplineSet
128 222 m 0
 128 114 239 88 363 88 c 0
 493 88 641 121 703 144 c 1
 718 149 l 1
 712 241 608 362 460 474 c 0
 448 484 436 497 436 509 c 0
 436 510 437 512 437 513 c 2
 462 575 l 1
 469 598 471 608 518 629 c 1
 888 738 l 2
 890 739 891 739 893 739 c 0
 899 739 902 735 902 727 c 0
 902 719 899 706 894 689 c 0
 883 655 879 635 862 630 c 2
 544 533 l 1
 706 400 777 284 777 185 c 0
 777 120 755 65 699 45 c 0
 620 17 482 -16 356 -16 c 0
 207 -16 75 30 75 182 c 0
 75 226 84 275 100 335 c 0
 104 347 109 349 118 347 c 0
 137 341 146 340 146 330 c 0
 146 326 145 322 143 315 c 0
 134 277 128 247 128 222 c 0
EndSplineSet
Colour: ffda6b
EndChar

StartChar: _.kaf.isol.ar
Encoding: 65571 -1 35
GlifName: _.kaf.isol.ar
Width: 794
VWidth: 1304
GlyphClass: 1
UnlinkRmOvrlpSave: 1
Flags: HMW
LayerCount: 2
Fore
SplineSet
75 102 m 0
 75 114 80 122 92 122 c 0
 96 122 101 121 107 119 c 0
 150 105 227 80 297 80 c 0
 472 80 571 111 644 152 c 1
 644 163 644 175 644 186 c 0
 644 336 636 523 617 718 c 0
 616 724 616 728 616 732 c 0
 616 746 621 754 643 772 c 1
 666 793 l 2
 672 798 677 800 681 800 c 0
 688 800 693 794 695 782 c 0
 714 613 719 434 719 288 c 0
 719 253 718 222 718 191 c 0
 717 158 710 108 672 82 c 0
 591 27 527 -20 307 -20 c 0
 196 -20 143 0 109 21 c 0
 100 26 75 74 75 102 c 0
EndSplineSet
Colour: ffda6b
EndChar

StartChar: _.kaf.fina.fa
Encoding: 65572 -1 36
GlifName: _.kaf.fina.fa
Width: 1025
VWidth: 1304
GlyphClass: 1
UnlinkRmOvrlpSave: 1
Flags: HMW
LayerCount: 2
Fore
SplineSet
128 222 m 0
 128 114 239 88 363 88 c 0
 493 88 641 121 703 144 c 1
 718 149 l 1
 714 195 687 249 643 304 c 1
 572 378 l 1
 540 410 502 442 460 474 c 0
 448 484 436 497 436 509 c 0
 436 510 437 512 437 513 c 2
 462 575 l 1
 469 598 471 608 518 629 c 1
 888 738 l 2
 890 739 891 739 893 739 c 0
 899 739 902 735 902 727 c 0
 902 719 899 706 894 689 c 0
 883 655 879 635 862 630 c 2
 544 533 l 1
 581 502 613 472 641 444 c 1
 891 171 l 2
 930 127 966 100 1025 100 c 1
 1025 -0 l 1
 945 0 893 33 838 92 c 2
 775 160 l 1
 768 108 749 63 699 45 c 0
 620 17 482 -16 356 -16 c 0
 207 -16 75 30 75 182 c 0
 75 226 84 275 100 335 c 0
 104 347 109 349 118 347 c 0
 137 341 146 340 146 330 c 0
 146 326 145 322 143 315 c 0
 134 277 128 247 128 222 c 0
EndSplineSet
Colour: ffda6b
EndChar

StartChar: _.kaf.fina.ar
Encoding: 65573 -1 37
GlifName: _.kaf.fina.ar
Width: 898
VWidth: 1304
GlyphClass: 1
UnlinkRmOvrlpSave: 1
Flags: HMW
LayerCount: 2
Fore
SplineSet
75 102 m 0
 75 114 80 122 92 122 c 0
 96 122 101 121 107 119 c 0
 150 105 227 80 297 80 c 0
 472 80 571 111 644 152 c 1
 644 163 644 175 644 186 c 0
 644 336 636 523 617 718 c 0
 616 724 616 728 616 732 c 0
 616 746 621 754 643 772 c 1
 666 793 l 2
 672 798 677 800 681 800 c 0
 688 800 693 794 695 782 c 0
 712 621 718 452 719 310 c 0
 721 154 754 100 898 100 c 1
 898 -0 l 1
 780 0 716 38 682 95 c 1
 604 -2 418 -20 307 -20 c 0
 196 -20 143 0 109 21 c 0
 100 26 75 74 75 102 c 0
EndSplineSet
Colour: ffda6b
EndChar

StartChar: _.kaf.medi
Encoding: 65574 -1 38
GlifName: _.kaf.medi
Width: 579
VWidth: 1304
GlyphClass: 1
UnlinkRmOvrlpSave: 1
Flags: HMW
LayerCount: 2
Fore
SplineSet
-50 50 m 0
 -50 76 -26 100 -1 100 c 2
 109 100 l 2
 199 100 238 115 270 140 c 1
 270 188 243 245 196 304 c 1
 127 378 l 1
 94 410 56 442 14 474 c 0
 2 484 -10 497 -10 509 c 0
 -10 510 -9 512 -9 513 c 2
 15 575 l 1
 22 598 25 608 72 629 c 1
 441 738 l 2
 443 739 445 739 447 739 c 0
 453 739 455 735 455 727 c 0
 455 719 452 706 447 689 c 0
 436 655 432 635 415 630 c 2
 98 533 l 1
 135 502 167 472 195 444 c 1
 445 171 l 2
 484 127 520 100 579 100 c 1
 579 -0 l 1
 499 0 447 33 392 92 c 2
 329 160 l 1
 328 156 328 152 327 148 c 0
 322 61 226 0 130 -0 c 2
 -1 -0 l 2
 -26 0 -50 24 -50 50 c 0
EndSplineSet
Colour: ffda6b
EndChar

StartChar: _.kaf.init
Encoding: 65575 -1 39
GlifName: _.kaf.init
Width: 555
VWidth: 1304
GlyphClass: 1
UnlinkRmOvrlpSave: 1
Flags: HMW
LayerCount: 2
Fore
SplineSet
-50 50 m 0
 -50 76 -26 100 -1 100 c 2
 109 100 l 2
 199 100 238 115 270 140 c 1
 270 234 167 358 14 474 c 0
 2 484 -10 497 -10 509 c 0
 -10 510 -9 512 -9 513 c 2
 15 575 l 1
 22 598 25 608 72 629 c 1
 441 738 l 2
 443 739 445 739 447 739 c 0
 453 739 455 735 455 727 c 0
 455 719 452 706 447 689 c 0
 436 655 432 635 415 630 c 2
 98 533 l 1
 259 401 331 285 331 187 c 0
 331 173 330 161 327 148 c 1
 322 61 226 0 130 -0 c 2
 -1 -0 l 2
 -26 0 -50 24 -50 50 c 0
EndSplineSet
Colour: ffda6b
EndChar

StartChar: _.kaf_hamze.isol.ar
Encoding: 65576 -1 40
GlifName: _.kaf_hamze.isol.ar
Width: 321
VWidth: 1304
GlyphClass: 1
UnlinkRmOvrlpSave: 1
Flags: HMW
LayerCount: 2
Fore
SplineSet
75 -20 m 1
 75 22 l 1
 80 22 86 21 91 21 c 0
 149 21 203 42 203 63 c 0
 203 73 189 84 157 92 c 0
 116 103 97 137 97 172 c 0
 97 215 127 259 184 259 c 0
 198 259 214 256 231 250 c 1
 231 205 l 1
 220 211 209 214 198 214 c 0
 166 214 138 193 138 171 c 0
 138 156 152 140 185 130 c 0
 224 118 246 93 246 66 c 0
 246 25 195 -20 81 -20 c 0
 79 -20 77 -20 75 -20 c 1
EndSplineSet
Colour: ffda6b
EndChar

StartChar: _.ghaf.isol
Encoding: 65577 -1 41
GlifName: _.ghaf.isol
Width: 977
VWidth: 0
GlyphClass: 1
UnlinkRmOvrlpSave: 1
Flags: HMW
LayerCount: 2
Fore
SplineSet
128 222 m 0
 128 114 239 88 363 88 c 0
 493 88 641 121 703 144 c 1
 718 149 l 1
 712 241 608 362 460 474 c 0
 448 484 436 497 436 509 c 0
 436 510 437 512 437 513 c 2
 462 575 l 1
 469 598 471 608 518 629 c 1
 888 738 l 2
 890 739 891 739 893 739 c 0
 899 739 902 735 902 727 c 0
 902 719 899 706 894 689 c 0
 883 655 879 635 862 630 c 2
 544 533 l 1
 706 400 777 284 777 185 c 0
 777 120 755 65 699 45 c 0
 620 17 482 -16 356 -16 c 0
 207 -16 75 30 75 182 c 0
 75 226 84 275 100 335 c 0
 104 347 109 349 118 347 c 0
 137 341 146 340 146 330 c 0
 146 326 145 322 143 315 c 0
 134 277 128 247 128 222 c 0
499 711 m 0
 499 727 519 760 528 763 c 2
 811 855 l 2
 812 855 813 856 814 856 c 0
 817 856 819 854 819 850 c 0
 819 835 795 796 777 790 c 2
 512 704 l 2
 510 703 508 703 506 703 c 0
 501 703 499 706 499 711 c 0
EndSplineSet
Colour: ffda6b
EndChar

StartChar: _.ghaf.fina
Encoding: 65578 -1 42
GlifName: _.ghaf.fina
Width: 1025
VWidth: 0
GlyphClass: 1
Flags: HMW
LayerCount: 2
Fore
SplineSet
128 222 m 0
 128 114 239 88 363 88 c 0
 493 88 641 121 703 144 c 1
 718 149 l 1
 714 195 687 249 643 304 c 1
 572 378 l 1
 540 410 502 442 460 474 c 0
 448 484 436 497 436 509 c 0
 436 510 437 512 437 513 c 2
 462 575 l 1
 469 598 471 608 518 629 c 1
 888 738 l 2
 890 739 891 739 893 739 c 0
 899 739 902 735 902 727 c 0
 902 719 899 706 894 689 c 0
 883 655 879 635 862 630 c 2
 544 533 l 1
 581 502 613 472 641 444 c 1
 891 171 l 2
 930 127 966 100 1025 100 c 1
 1025 -0 l 1
 945 0 893 33 838 92 c 2
 775 160 l 1
 768 108 749 63 699 45 c 0
 620 17 482 -16 356 -16 c 0
 207 -16 75 30 75 182 c 0
 75 226 84 275 100 335 c 0
 104 347 109 349 118 347 c 0
 137 341 146 340 146 330 c 0
 146 326 145 322 143 315 c 0
 134 277 128 247 128 222 c 0
499 711 m 0
 499 727 519 760 528 763 c 2
 811 855 l 2
 812 855 813 856 814 856 c 0
 817 856 819 854 819 850 c 0
 819 835 795 796 777 790 c 2
 512 704 l 2
 510 703 508 703 506 703 c 0
 501 703 499 706 499 711 c 0
EndSplineSet
Colour: ffda6b
EndChar

StartChar: _.lam.isol
Encoding: 65580 -1 44
GlifName: _.lam.isol
Width: 722
VWidth: 1304
GlyphClass: 1
UnlinkRmOvrlpSave: 1
Flags: HMW
LayerCount: 2
Fore
SplineSet
136 -46 m 0
 136 -137 192 -198 337 -198 c 0
 473 -198 588 -99 588 7 c 1
 566 715 l 2
 566 721 566 725 566 729 c 0
 566 743 568 749 581 759 c 2
 625 795 l 2
 637 805 647 800 647 784 c 2
 647 0 l 1
 637 -187 485 -298 325 -299 c 0
 197 -299 75 -240 75 -85 c 0
 75 -28 91 42 130 127 c 0
 134 134 138 139 147 134 c 1
 170 124 l 2
 177 120 177 115 173 108 c 0
 150 52 136 -1 136 -46 c 0
EndSplineSet
Colour: ffda6b
EndChar

StartChar: _.lam.fina
Encoding: 65581 -1 45
GlifName: _.lam.fina
Width: 809
VWidth: 1304
GlyphClass: 1
UnlinkRmOvrlpSave: 1
Flags: HMW
LayerCount: 2
Fore
SplineSet
136 -46 m 0
 136 -137 192 -198 337 -198 c 0
 473 -198 588 -99 588 7 c 1
 566 715 l 2
 566 721 566 725 566 729 c 0
 566 743 568 749 581 759 c 2
 625 795 l 2
 637 805 647 800 647 784 c 2
 647 146 l 1
 669 112 709 100 763 100 c 2
 809 100 l 1
 809 0 l 1
 759 0 l 2
 710 0 674 11 647 29 c 1
 647 0 l 1
 637 -187 485 -298 325 -299 c 0
 197 -299 75 -240 75 -85 c 0
 75 -28 91 42 130 127 c 0
 134 134 138 139 147 134 c 1
 170 124 l 2
 177 120 177 115 173 108 c 0
 150 52 136 -1 136 -46 c 0
EndSplineSet
Colour: ffda6b
EndChar

StartChar: _.lam.medi
Encoding: 65582 -1 46
GlifName: _.lam.medi
Width: 380
VWidth: 1304
GlyphClass: 1
UnlinkRmOvrlpSave: 1
Flags: HMW
LayerCount: 2
Fore
SplineSet
-50 50 m 0
 -49 76 -25 100 0 100 c 0
 70 101 126 111 156 141 c 1
 138 715 l 2
 138 721 138 725 138 729 c 0
 138 743 140 749 153 759 c 2
 197 795 l 2
 209 805 220 800 220 784 c 2
 220 151 l 1
 238 117 290 100 355 100 c 2
 380 100 l 1
 380 -0 l 1
 356 -0 l 2
 274 0 224 21 194 59 c 1
 152 12 86 1 0 -0 c 0
 -25 0 -50 24 -50 50 c 0
EndSplineSet
Colour: ffda6b
EndChar

StartChar: _.lam.init
Encoding: 65583 -1 47
GlifName: _.lam.init
Width: 341
VWidth: 1304
GlyphClass: 1
UnlinkRmOvrlpSave: 1
Flags: HMW
LayerCount: 2
Fore
SplineSet
-50 49 m 0
 -50 76 -27 100 -1 100 c 2
 40 100 l 2
 84 100 146 114 167 134 c 1
 174 139 l 1
 136 714 l 2
 136 723 135 729 135 734 c 0
 135 743 137 748 149 759 c 2
 188 793 l 2
 194 799 199 801 204 801 c 0
 211 801 215 795 216 784 c 2
 241 181 l 1
 239 47 122 0 40 -0 c 2
 -1 -0 l 2
 -25 0 -50 24 -50 49 c 0
EndSplineSet
Colour: ffda6b
EndChar

StartChar: _.mim.isol
Encoding: 65584 -1 48
GlifName: _.mim.isol
Width: 604
VWidth: 1304
GlyphClass: 1
UnlinkRmOvrlpSave: 1
Flags: HMW
LayerCount: 2
Fore
SplineSet
75 15 m 0
 75 148 138 193 225 202 c 1
 225 218 l 2
 225 220 225 223 225 225 c 0
 225 369 281 423 344 423 c 0
 429 423 529 327 529 226 c 0
 529 207 526 187 518 168 c 0
 499 123 468 84 410 84 c 0
 405 84 399 84 393 85 c 0
 349 90 293 101 242 101 c 0
 204 101 169 95 145 75 c 1
 166 -255 l 2
 166 -258 166 -261 166 -264 c 0
 166 -284 162 -292 152 -301 c 2
 110 -338 l 2
 95 -350 87 -344 87 -324 c 2
 75 0 l 2
 75 5 75 10 75 15 c 0
270 203 m 1
 324 202 383 192 439 182 c 0
 443 181 448 181 451 181 c 0
 466 181 473 187 473 198 c 0
 473 235 393 320 333 320 c 0
 299 320 270 291 270 207 c 0
 270 206 270 204 270 203 c 1
EndSplineSet
Colour: ffda6b
EndChar

StartChar: _.mim.fina
Encoding: 65585 -1 49
GlifName: _.mim.fina
Width: 628
VWidth: 1304
GlyphClass: 1
UnlinkRmOvrlpSave: 1
Flags: HMW
LayerCount: 2
Fore
SplineSet
75 81 m 0
 75 216 244 237 350 248 c 1
 356 259 362 269 370 269 c 0
 374 269 378 267 383 260 c 0
 477 120 521 100 628 100 c 1
 628 -0 l 1
 594 0 564 2 534 8 c 1
 529 -120 465 -184 401 -184 c 0
 337 -184 274 -119 274 11 c 0
 274 49 279 93 292 143 c 1
 243 137 187 128 144 108 c 1
 168 -255 l 2
 168 -259 168 -263 168 -267 c 0
 168 -284 163 -293 155 -301 c 2
 112 -338 l 2
 98 -350 89 -344 89 -324 c 2
 75 75 l 2
 75 77 75 79 75 81 c 0
346 100 m 0
 346 -22 379 -68 414 -68 c 0
 446 -68 479 -29 486 24 c 1
 437 46 394 85 352 149 c 1
 347 149 l 1
 346 131 346 115 346 100 c 0
EndSplineSet
Colour: ffda6b
EndChar

StartChar: _.mim.medi
Encoding: 65586 -1 50
GlifName: _.mim.medi
Width: 687
VWidth: 1304
GlyphClass: 1
UnlinkRmOvrlpSave: 1
Flags: HMW
LayerCount: 2
Fore
SplineSet
-50 50 m 0
 -50 75 -25 99 -2 100 c 0
 121 100 159 150 197 210 c 2
 250 295 l 2
 265 318 298 367 348 367 c 0
 359 367 372 364 385 358 c 0
 434 336 477 278 497 214 c 0
 498 210 499 206 500 202 c 0
 522 131 568 100 687 100 c 1
 687 -0 l 1
 606 1 534 13 490 61 c 1
 472 24 438 -16 376 -16 c 0
 360 -16 341 -12 321 -6 c 0
 279 8 219 38 185 65 c 1
 147 33 89 0 0 -0 c 1
 -25 1 -50 24 -50 50 c 0
233 152 m 1
 267 125 353 81 402 81 c 0
 403 81 l 0
 423 81 430 93 430 112 c 0
 430 160 376 249 333 260 c 0
 330 261 326 261 323 261 c 0
 297 261 284 234 269 209 c 2
 233 152 l 1
EndSplineSet
Colour: ffda6b
EndChar

StartChar: _.mim.init
Encoding: 65587 -1 51
GlifName: _.mim.init
Width: 608
VWidth: 1304
GlyphClass: 1
UnlinkRmOvrlpSave: 1
Flags: HMW
LayerCount: 2
Fore
SplineSet
-50 50 m 0
 -50 75 -25 99 -2 100 c 0
 121 100 159 150 197 210 c 2
 250 295 l 2
 265 318 298 367 348 367 c 0
 359 367 372 364 385 358 c 0
 453 326 508 229 508 140 c 0
 508 115 504 91 494 69 c 0
 476 30 441 -16 376 -16 c 0
 359 -16 342 -13 321 -6 c 0
 279 8 219 38 185 65 c 1
 147 33 89 0 0 -0 c 1
 -25 1 -50 24 -50 50 c 0
233 152 m 1
 267 125 353 81 402 81 c 0
 403 81 l 0
 423 81 430 93 430 112 c 0
 430 160 376 249 333 260 c 0
 330 261 326 261 323 261 c 0
 297 261 284 234 269 209 c 2
 233 152 l 1
EndSplineSet
Colour: ffda6b
EndChar

StartChar: _.nun.isol
Encoding: 65588 -1 52
GlifName: _.nun.isol
Width: 750
VWidth: 1305
GlyphClass: 1
UnlinkRmOvrlpSave: 1
Flags: HMW
LayerCount: 2
Fore
SplineSet
75 -66 m 0
 75 -12 88 53 118 127 c 0
 122 134 126 139 136 134 c 2
 157 124 l 2
 164 120 165 117 161 108 c 0
 143 56 135 12 135 -25 c 0
 135 -154 228 -201 323 -201 c 0
 451 -200 601 -109 601 -11 c 0
 601 27 575 118 553 176 c 0
 547 191 556 198 562 203 c 2
 611 246 l 2
 618 252 628 251 633 239 c 0
 661 155 675 89 675 37 c 0
 675 35 675 33 675 31 c 0
 675 -180 487 -301 321 -301 c 0
 191 -301 75 -228 75 -66 c 0
EndSplineSet
Colour: ffda6b
EndChar

StartChar: _.nun.fina
Encoding: 65589 -1 53
GlifName: _.nun.fina
Width: 823
VWidth: 1413
GlyphClass: 1
UnlinkRmOvrlpSave: 1
Flags: HMW
LayerCount: 2
Fore
SplineSet
75 -66 m 0
 75 -12 88 53 118 127 c 0
 122 134 126 139 136 134 c 2
 157 124 l 2
 164 120 165 117 161 108 c 0
 143 56 135 12 135 -25 c 0
 135 -154 228 -201 323 -201 c 0
 451 -200 601 -109 601 -11 c 0
 601 27 575 118 553 176 c 0
 547 191 556 198 562 203 c 2
 611 246 l 2
 614 249 617 250 620 250 c 0
 635 250 641 212 644 202 c 0
 662 152 699 100 791 100 c 2
 823 100 l 1
 823 -0 l 1
 786 -0 l 2
 738 0 702 11 675 28 c 1
 675 31 l 2
 675 -180 487 -301 321 -301 c 0
 191 -301 75 -228 75 -66 c 0
EndSplineSet
Colour: ffda6b
EndChar

StartChar: _.vav.isol
Encoding: 65590 -1 54
GlifName: _.vav.isol
Width: 613
VWidth: 1304
GlyphClass: 1
UnlinkRmOvrlpSave: 1
Flags: HMW
LayerCount: 2
Fore
SplineSet
75 -244 m 1
 81 -218 l 1
 106 -221 128 -223 148 -223 c 0
 197 -223 232 -215 262 -206 c 0
 335 -184 431 -110 457 -45 c 1
 457 -19 456 9 454 36 c 1
 429 16 381 -1 332 -1 c 0
 230 0 192 65 192 140 c 0
 192 241 262 359 342 359 c 0
 346 359 351 360 355 360 c 0
 463 360 538 191 538 40 c 0
 538 -16 528 -70 505 -111 c 1
 449 -227 336 -299 269 -299 c 0
 268 -299 268 -299 267 -299 c 0
 266 -299 265 -299 264 -299 c 0
 196 -299 111 -263 75 -244 c 1
254 160 m 0
 254 128 276 101 342 101 c 0
 343 101 342 101 343 101 c 0
 377 101 415 108 441 118 c 1
 423 197 386 261 331 261 c 0
 330 261 l 0
 299 261 254 206 254 160 c 0
EndSplineSet
Colour: ffda6b
EndChar

StartChar: _.vav.fina
Encoding: 65591 -1 55
GlifName: _.vav.fina
Width: 636
VWidth: 1304
GlyphClass: 1
UnlinkRmOvrlpSave: 1
Flags: HMW
LayerCount: 2
Fore
SplineSet
75 -244 m 1
 81 -218 l 1
 106 -221 128 -223 148 -223 c 0
 197 -223 232 -215 262 -206 c 0
 333 -184 428 -112 455 -48 c 1
 455 -0 l 1
 331 -0 l 2
 230 0 192 65 192 140 c 0
 192 241 262 359 341 359 c 0
 345 360 350 360 354 360 c 0
 447 360 517 233 533 100 c 1
 636 100 l 1
 636 -0 l 1
 535 -0 l 1
 534 -11 532 -22 530 -33 c 0
 498 -195 348 -299 268 -299 c 0
 267 -299 l 0
 266 -299 265 -299 264 -299 c 0
 196 -299 111 -263 75 -244 c 1
253 159 m 0
 253 127 275 100 340 100 c 0
 341 100 341 100 342 100 c 2
 444 100 l 1
 427 187 390 261 330 261 c 0
 329 261 l 0
 299 261 253 205 253 159 c 0
EndSplineSet
Colour: ffda6b
EndChar

StartChar: _.dal.isol
Encoding: 65592 -1 56
GlifName: _.dal.isol
Width: 531
VWidth: 1304
GlyphClass: 1
UnlinkRmOvrlpSave: 1
Flags: HMW
LayerCount: 2
Fore
SplineSet
75 100 m 2
 75 130 l 2
 75 139 77 144 86 148 c 2
 106 154 l 2
 116 158 121 153 121 143 c 2
 121 125 l 2
 121 95 167 81 224 81 c 0
 278 81 342 95 385 122 c 1
 370 224 323 312 210 394 c 0
 203 399 201 404 201 410 c 0
 201 417 205 425 209 431 c 2
 234 475 l 2
 243 489 256 485 265 479 c 0
 425 368 456 233 456 152 c 0
 456 129 453 110 450 98 c 0
 435 25 330 -20 235 -20 c 0
 90 -20 75 25 75 100 c 2
EndSplineSet
Colour: ffda6b
EndChar

StartChar: _.dal.fina
Encoding: 65593 -1 57
GlifName: _.dal.fina
Width: 603
VWidth: 1304
GlyphClass: 1
UnlinkRmOvrlpSave: 1
Flags: HMW
LayerCount: 2
Fore
SplineSet
75 100 m 2
 75 130 l 2
 75 139 77 144 86 148 c 2
 106 154 l 2
 116 158 121 153 121 143 c 2
 121 125 l 2
 121 95 167 81 224 81 c 0
 279 81 343 95 385 122 c 1
 376 144 371 170 366 198 c 2
 330 400 l 2
 328 417 327 428 338 434 c 2
 385 465 l 2
 399 474 406 473 411 459 c 1
 443 260 l 2
 455 182 473 100 574 100 c 2
 603 100 l 1
 603 -0 l 1
 575 -0 l 2
 507 0 459 16 426 52 c 1
 387 6 308 -20 235 -20 c 0
 90 -20 75 25 75 100 c 2
EndSplineSet
Colour: ffda6b
EndChar

StartChar: _.ree.isol
Encoding: 65594 -1 58
GlifName: _.ree.isol
Width: 612
VWidth: 1304
GlyphClass: 1
UnlinkRmOvrlpSave: 1
Flags: HMW
LayerCount: 2
Fore
SplineSet
75 -244 m 1
 81 -218 l 1
 106 -221 128 -223 148 -223 c 0
 197 -223 232 -215 262 -206 c 0
 350 -179 463 -85 463 -7 c 0
 463 54 418 165 396 220 c 0
 391 235 399 242 405 247 c 2
 454 289 l 2
 461 296 471 295 476 283 c 0
 503 201 537 128 537 40 c 0
 537 37 537 34 537 31 c 0
 537 -166 358 -299 268 -299 c 0
 267 -299 l 0
 266 -299 265 -299 264 -299 c 0
 196 -299 111 -263 75 -244 c 1
EndSplineSet
Colour: ffda6b
EndChar

StartChar: _.ree.fina
Encoding: 65595 -1 59
GlifName: _.ree.fina
Width: 683
VWidth: 1304
GlyphClass: 1
UnlinkRmOvrlpSave: 1
Flags: HMW
LayerCount: 2
Fore
SplineSet
75 -244 m 1
 81 -218 l 1
 106 -221 128 -223 148 -223 c 0
 197 -223 232 -215 262 -206 c 0
 350 -179 463 -85 463 -7 c 0
 463 54 418 165 396 220 c 0
 391 235 399 242 405 247 c 2
 454 289 l 2
 461 296 471 295 476 283 c 0
 485 255 495 227 505 200 c 0
 522 151 559 100 650 100 c 2
 683 100 l 1
 683 -0 l 1
 646 -0 l 2
 598 0 564 10 537 27 c 1
 536 -168 357 -299 268 -299 c 0
 267 -299 l 0
 266 -299 265 -299 264 -299 c 0
 196 -299 111 -263 75 -244 c 1
EndSplineSet
Colour: ffda6b
EndChar

StartChar: _.he8.isol
Encoding: 65596 -1 60
GlifName: _.he8.isol
Width: 495
VWidth: 1304
GlyphClass: 1
UnlinkRmOvrlpSave: 1
Flags: HMW
LayerCount: 2
Fore
SplineSet
420 189 m 0
 420 88 364 0 241 -0 c 2
 228 -0 l 2
 227 0 226 0 225 -0 c 0
 147 0 75 50 75 143 c 0
 75 146 75 149 75 152 c 0
 79 210 97 282 163 379 c 1
 152 389 l 2
 145 394 142 400 142 405 c 0
 142 412 146 419 150 425 c 2
 176 469 l 2
 185 483 199 480 206 473 c 0
 310 392 420 337 420 189 c 0
135 160 m 0
 135 124 159 100 229 100 c 0
 330 100 367 125 367 160 c 0
 367 201 316 256 262 300 c 2
 222 332 l 1
 182 279 135 209 135 160 c 0
EndSplineSet
Colour: ffda6b
EndChar

StartChar: _.he8.fina
Encoding: 65597 -1 61
GlifName: _.he8.fina
Width: 514
VWidth: 1304
GlyphClass: 1
UnlinkRmOvrlpSave: 1
Flags: HMW
LayerCount: 2
Fore
SplineSet
75 212 m 0
 76 281 183 352 261 391 c 1
 255 437 l 2
 254 443 258 453 263 458 c 2
 308 493 l 2
 317 500 325 496 326 485 c 2
 364 242 l 2
 375 173 377 100 491 100 c 2
 514 100 l 1
 514 -0 l 1
 491 -0 l 2
 365 0 325 59 304 139 c 1
 266 120 224 111 187 111 c 0
 147 111 114 121 96 141 c 0
 79 161 75 186 75 212 c 0
118 214 m 1
 133 201 160 193 192 193 c 0
 222 193 257 201 289 219 c 1
 272 326 l 1
 207 298 132 246 118 214 c 1
EndSplineSet
Colour: ffda6b
EndChar

StartChar: _.he8.medi
Encoding: 65598 -1 62
GlifName: _.he8.medi
Width: 534
VWidth: 1304
GlyphClass: 1
UnlinkRmOvrlpSave: 1
Flags: HMW
LayerCount: 2
Fore
SplineSet
446 -105 m 0
 446 -183 398 -221 341 -221 c 0
 256 -221 147 -139 125 10 c 1
 93 4 58 0 25 -0 c 2
 -1 -0 l 2
 -25 0 -50 24 -50 49 c 0
 -50 76 -27 100 -1 100 c 2
 26 100 l 2
 57 100 87 102 117 106 c 1
 124 222 193 355 282 423 c 0
 303 440 318 450 329 450 c 0
 344 450 355 433 372 389 c 0
 400 306 414 241 414 189 c 0
 414 187 414 184 414 182 c 2
 414 181 l 2
 414 159 391 130 349 100 c 1
 534 100 l 1
 534 -0 l 1
 418 -0 l 1
 437 -31 446 -67 446 -105 c 0
174 114 m 1
 249 129 314 158 351 197 c 1
 340 238 322 285 296 322 c 1
 237 268 192 189 174 114 c 1
193 -0 m 1
 217 -69 298 -121 352 -121 c 0
 367 -121 381 -118 390 -109 c 1
 390 -79 352 -37 287 -0 c 1
 193 -0 l 1
EndSplineSet
Colour: ffda6b
EndChar

StartChar: _.he8.init
Encoding: 65599 -1 63
GlifName: _.he8.init
Width: 657
VWidth: 1304
GlyphClass: 1
UnlinkRmOvrlpSave: 1
Flags: HMW
LayerCount: 2
Fore
SplineSet
-50 50 m 0
 -50 76 -26 100 -1 100 c 2
 29 100 l 2
 67 100 114 110 156 127 c 1
 147 132 138 138 131 143 c 0
 100 166 87 198 87 236 c 0
 87 312 134 383 173 417 c 1
 191 521 l 1
 229 496 265 474 298 452 c 0
 299 452 301 450 302 449 c 0
 458 349 557 275 557 171 c 0
 557 148 552 124 542 98 c 0
 524 49 481 31 428 31 c 0
 373 31 307 51 248 77 c 1
 188 31 109 0 29 -0 c 2
 -1 -0 l 2
 -26 0 -50 24 -50 50 c 0
252 180 m 1
 286 206 305 229 305 276 c 0
 305 315 286 349 254 362 c 0
 252 362 250 362 247 362 c 0
 218 362 162 338 147 293 c 0
 146 291 146 288 146 286 c 0
 146 267 167 239 189 220 c 0
 206 206 229 192 252 180 c 1
355 288 m 0
 355 228 342 188 316 149 c 1
 360 132 407 120 450 120 c 0
 479 120 494 130 494 148 c 0
 494 178 451 231 355 301 c 1
 355 297 355 292 355 288 c 0
EndSplineSet
Colour: ffda6b
EndChar

StartChar: _.yeh.fina
Encoding: 65600 -1 64
GlifName: _.yeh.fina
Width: 705
VWidth: 1304
GlyphClass: 1
UnlinkRmOvrlpSave: 1
Flags: HMW
LayerCount: 2
Fore
SplineSet
75 -74 m 0
 75 -3 97 86 148 196 c 0
 152 205 156 208 166 204 c 2
 187 194 l 2
 194 190 195 185 191 178 c 0
 154 95 138 28 138 -26 c 0
 138 -147 218 -200 320 -200 c 0
 321 -200 321 -200 322 -200 c 0
 376 -200 435 -184 488 -155 c 0
 519 -137 540 -120 540 -101 c 0
 540 -77 507 -49 420 -15 c 0
 407 -11 396 1 396 16 c 0
 396 51 444 100 474 100 c 2
 705 100 l 1
 705 -0 l 1
 588 -0 l 1
 621 -33 635 -65 635 -95 c 0
 635 -111 631 -127 624 -141 c 1
 624 -142 l 1
 616 -154 609 -164 600 -174 c 0
 526 -259 420 -301 313 -301 c 0
 184 -301 75 -233 75 -74 c 0
EndSplineSet
Colour: ffda6b
EndChar

StartChar: _.yeh.isol
Encoding: 65601 -1 65
GlifName: _.yeh.isol
Width: 778
VWidth: 1304
GlyphClass: 1
UnlinkRmOvrlpSave: 1
Flags: HMW
LayerCount: 2
Fore
SplineSet
564 280 m 0
 490 280 424 186 424 143 c 0
 424 118 442 100 486 100 c 0
 613 100 664 39 664 -31 c 0
 664 -68 649 -107 625 -142 c 0
 551 -249 433 -301 313 -301 c 0
 184 -301 75 -233 75 -74 c 0
 75 -3 97 86 148 196 c 0
 152 205 156 208 166 204 c 2
 187 194 l 2
 194 190 195 185 191 178 c 0
 154 95 138 28 138 -26 c 0
 138 -147 218 -200 320 -200 c 0
 321 -200 321 -200 322 -200 c 0
 403 -200 497 -164 561 -102 c 0
 581 -83 594 -65 594 -49 c 0
 594 -21 557 -1 459 -0 c 0
 385 0 358 44 358 103 c 0
 358 198 430 329 503 372 c 0
 522 382 542 386 560 386 c 0
 630 386 689 322 703 255 c 1
 676 224 l 1
 631 264 596 280 564 280 c 0
EndSplineSet
Colour: ffda6b
EndChar

StartChar: _.hamze.isol
Encoding: 65602 -1 66
GlifName: _.hamze.isol
Width: 513
VWidth: 1304
GlyphClass: 2
Flags: HMW
LayerCount: 2
Fore
SplineSet
75 66 m 2
 74 73 76 84 82 88 c 0
 108 105 135 122 165 138 c 1
 122 181 102 234 102 283 c 0
 102 362 155 431 252 431 c 0
 284 431 321 424 363 406 c 0
 377 401 377 396 375 386 c 1
 362 353 l 1
 357 344 357 336 343 340 c 0
 324 344 305 346 288 346 c 0
 224 346 180 317 180 277 c 0
 180 248 203 214 261 181 c 1
 285 191 367 220 408 220 c 0
 421 220 430 217 431 209 c 2
 437 173 l 2
 438 166 438 152 431 151 c 0
 313 120 213 80 106 0 c 0
 99 -5 84 1 83 8 c 2
 75 66 l 2
EndSplineSet
Colour: ffda6b
EndChar

StartChar: _.keshide.medi
Encoding: 65603 -1 67
GlifName: _.keshide.medi
Width: 235
VWidth: 1304
GlyphClass: 2
Flags: HMW
LayerCount: 2
Fore
SplineSet
-12 100 m 2
 235 100 l 1
 235 0 l 1
 -12 0 l 2
 -24 0 -33 5 -40 15 c 0
 -47 25 -50 37 -50 50 c 0
 -50 63 -47 75 -40 85 c 0
 -33 95 -24 100 -12 100 c 2
EndSplineSet
Colour: ffda6b
EndChar

StartChar: _.dot.1u
Encoding: 65604 -1 68
GlifName: _.dot.1u
Width: 0
VWidth: 1304
GlyphClass: 2
Flags: HMW
LayerCount: 2
Fore
SplineSet
5 61 m 2
 -2 68 -2 83 5 90 c 2
 60 145 l 2
 67 152 81 152 88 145 c 2
 144 90 l 2
 151 83 151 68 144 61 c 2
 88 6 l 2
 81 -1 67 -1 60 6 c 2
 5 61 l 2
EndSplineSet
Colour: ffda6b
EndChar

StartChar: _.dot.2u
Encoding: 65605 -1 69
GlifName: _.dot.2u
Width: 0
VWidth: 1304
GlyphClass: 2
UnlinkRmOvrlpSave: 1
Flags: HMW
LayerCount: 2
Fore
SplineSet
5 56 m 2
 -2 63 -2 75 5 82 c 2
 56 134 l 2
 63 141 75 141 82 134 c 2
 134 82 l 2
 141 75 141 63 134 56 c 2
 82 5 l 2
 75 -2 63 -2 56 5 c 2
 5 56 l 2
155 56 m 2
 148 63 148 75 155 82 c 2
 206 134 l 2
 213 141 225 141 232 134 c 2
 284 82 l 2
 291 75 291 63 284 56 c 2
 232 5 l 2
 225 -2 213 -2 206 5 c 2
 155 56 l 2
EndSplineSet
Colour: ffda6b
EndChar

StartChar: _.dot.3u
Encoding: 65606 -1 70
GlifName: _.dot.3u
Width: 0
VWidth: 1304
GlyphClass: 2
UnlinkRmOvrlpSave: 1
Flags: HMW
LayerCount: 2
Fore
SplineSet
5 56 m 2
 -2 63 -2 75 5 82 c 2
 56 134 l 2
 63 141 75 141 82 134 c 2
 134 82 l 2
 141 75 141 63 134 56 c 2
 82 5 l 2
 75 -2 63 -2 56 5 c 2
 5 56 l 2
89 191 m 2
 83 198 83 208 89 215 c 2
 135 261 l 2
 141 267 152 267 158 261 c 2
 204 215 l 2
 211 208 211 198 204 191 c 2
 158 145 l 2
 152 139 141 139 135 145 c 2
 89 191 l 2
155 56 m 2
 148 63 148 75 155 82 c 2
 206 134 l 2
 213 141 225 141 232 134 c 2
 284 82 l 2
 291 75 291 63 284 56 c 2
 232 5 l 2
 225 -2 213 -2 206 5 c 2
 155 56 l 2
EndSplineSet
Colour: ffda6b
EndChar

StartChar: _.dot.1d
Encoding: 65607 -1 71
GlifName: _.dot.1d
Width: 0
VWidth: 1304
GlyphClass: 2
Flags: HMW
LayerCount: 2
Fore
SplineSet
5 -63 m 2
 60 -8 l 2
 67 -1 81 -1 88 -8 c 2
 144 -63 l 2
 151 -70 151 -82 144 -91 c 2
 88 -145 l 2
 81 -154 67 -154 60 -145 c 2
 5 -91 l 2
 -2 -82 -2 -70 5 -63 c 2
EndSplineSet
Colour: ffda6b
EndChar

StartChar: _.dot.2d
Encoding: 65608 -1 72
GlifName: _.dot.2d
Width: 0
VWidth: 1304
GlyphClass: 2
UnlinkRmOvrlpSave: 1
Flags: HMW
LayerCount: 2
Fore
SplineSet
5 -58 m 2
 56 -6 l 2
 63 1 75 1 82 -6 c 2
 134 -58 l 2
 141 -65 141 -77 134 -84 c 2
 82 -136 l 2
 75 -143 63 -143 56 -136 c 2
 5 -84 l 2
 -2 -77 -2 -65 5 -58 c 2
155 -58 m 2
 206 -6 l 2
 213 1 225 1 232 -6 c 2
 284 -58 l 2
 291 -65 291 -77 284 -84 c 2
 232 -136 l 2
 225 -143 213 -143 206 -136 c 2
 155 -84 l 2
 148 -77 148 -65 155 -58 c 2
EndSplineSet
Colour: ffda6b
EndChar

StartChar: _.dot.3d
Encoding: 65609 -1 73
GlifName: _.dot.3d
Width: 0
VWidth: 1304
GlyphClass: 2
UnlinkRmOvrlpSave: 1
Flags: HMW
LayerCount: 2
Fore
SplineSet
5 -58 m 2
 56 -6 l 2
 63 1 75 1 82 -6 c 2
 134 -58 l 2
 141 -65 141 -77 134 -84 c 2
 82 -136 l 2
 75 -143 63 -143 56 -136 c 2
 5 -84 l 2
 -2 -77 -2 -65 5 -58 c 2
86 -191 m 2
 131 -145 l 2
 137 -139 149 -139 155 -145 c 2
 200 -191 l 2
 206 -198 206 -209 200 -216 c 2
 155 -261 l 2
 149 -267 137 -267 131 -261 c 2
 86 -216 l 2
 79 -209 79 -198 86 -191 c 2
155 -58 m 2
 206 -6 l 2
 213 1 225 1 232 -6 c 2
 284 -58 l 2
 291 -65 291 -77 284 -84 c 2
 232 -136 l 2
 225 -143 213 -143 206 -136 c 2
 155 -84 l 2
 148 -77 148 -65 155 -58 c 2
EndSplineSet
Colour: ffda6b
EndChar

StartChar: _.num.1
Encoding: 65612 -1 76
GlifName: _.num.1
Width: 309
VWidth: 1331
GlyphClass: 2
Flags: HMW
LayerCount: 2
Fore
SplineSet
75 615 m 0
 75 625 82 630 94 644 c 2
 133 690 l 2
 139 697 144 700 149 700 c 0
 156 700 162 693 165 683 c 0
 234 470 234 380 234 5 c 0
 234 -4 203 -25 180 -25 c 0
 166 -25 154 -17 154 5 c 0
 154 19 154 32 154 45 c 0
 154 258 152 412 78 602 c 0
 76 608 75 611 75 615 c 0
EndSplineSet
Colour: ffda6b
EndChar

StartChar: _.num.2
Encoding: 65613 -1 77
GlifName: _.num.2
Width: 592
VWidth: 1331
GlyphClass: 2
Flags: HMW
LayerCount: 2
Fore
SplineSet
327 483 m 0
 389 483 427 514 427 583 c 0
 427 598 425 615 421 634 c 0
 419 646 421 652 427 656 c 2
 479 689 l 2
 486 694 495 700 500 686 c 0
 512 640 517 599 517 564 c 0
 517 462 473 402 414 377 c 0
 385 365 353 357 321 357 c 0
 289 357 258 364 228 380 c 1
 234 289 234 177 234 5 c 0
 234 -4 203 -25 180 -25 c 0
 166 -25 154 -17 154 5 c 0
 154 19 154 32 154 45 c 0
 154 258 152 412 78 602 c 0
 76 608 75 611 75 615 c 0
 75 625 82 630 94 644 c 2
 133 690 l 2
 139 697 144 700 149 700 c 0
 164 700 169 674 173 661 c 1
 173 660 l 1
 180 635 188 613 194 591 c 0
 227 510 280 483 327 483 c 0
EndSplineSet
Colour: ffda6b
EndChar

StartChar: _.num.3
Encoding: 65614 -1 78
GlifName: _.num.3
Width: 827
VWidth: 1331
GlyphClass: 2
Flags: HMW
LayerCount: 2
Fore
SplineSet
440 406 m 1
 410 378 357 357 305 357 c 0
 278 357 252 362 228 375 c 1
 234 284 234 174 234 5 c 0
 234 -4 203 -25 180 -25 c 0
 166 -25 154 -17 154 5 c 0
 154 19 154 32 154 45 c 0
 154 258 152 412 78 602 c 0
 76 608 75 611 75 615 c 0
 75 625 82 630 94 644 c 2
 133 690 l 2
 139 697 144 700 149 700 c 0
 164 700 169 674 173 661 c 1
 173 660 l 1
 182 632 189 607 196 582 c 0
 226 507 270 484 311 484 c 0
 371 484 408 515 408 583 c 0
 408 598 406 615 402 634 c 0
 400 646 402 652 408 656 c 2
 458 689 l 2
 467 694 475 700 479 686 c 0
 491 641 497 601 497 566 c 0
 497 548 496 531 493 516 c 1
 516 499 540 492 563 492 c 0
 625 492 663 525 663 594 c 0
 663 609 662 626 658 644 c 0
 656 656 658 662 664 667 c 2
 714 699 l 2
 723 704 731 709 735 695 c 0
 747 649 752 610 752 574 c 0
 752 472 708 411 650 386 c 0
 621 374 590 368 558 368 c 0
 517 368 475 379 440 406 c 1
EndSplineSet
Colour: ffda6b
EndChar

StartChar: _.num.4.fa
Encoding: 65615 -1 79
GlifName: _.num.4.fa
Width: 725
VWidth: 1331
GlyphClass: 2
Flags: HMW
LayerCount: 2
Fore
SplineSet
75 615 m 0
 75 625 82 630 94 644 c 2
 133 690 l 2
 139 697 144 700 149 700 c 0
 156 700 162 693 165 683 c 0
 187 617 202 562 212 508 c 1
 228 486 246 468 264 453 c 1
 256 480 251 509 251 537 c 0
 251 582 262 626 288 662 c 1
 320 718 384 744 448 744 c 0
 506 744 565 724 606 687 c 0
 621 675 622 670 620 663 c 2
 610 638 l 2
 606 628 603 625 583 630 c 0
 551 639 511 645 472 645 c 0
 418 645 365 632 340 594 c 0
 340 592 340 591 340 589 c 0
 340 515 365 454 407 406 c 1
 410 406 411 406 414 406 c 0
 472 406 539 419 616 445 c 0
 625 448 634 451 640 451 c 0
 646 451 650 448 650 440 c 0
 650 436 650 431 648 425 c 2
 634 380 l 2
 624 347 513 300 394 300 c 0
 338 300 281 310 231 337 c 1
 235 253 234 150 234 5 c 0
 234 -4 203 -25 180 -25 c 0
 166 -25 154 -17 154 5 c 0
 154 19 154 32 154 45 c 0
 154 258 152 412 78 602 c 0
 76 608 75 611 75 615 c 0
EndSplineSet
Colour: ffda6b
EndChar

StartChar: _.num.5.fa
Encoding: 65617 -1 81
GlifName: _.num.5.fa
Width: 673
VWidth: 1331
GlyphClass: 2
Flags: HMW
LayerCount: 2
Fore
SplineSet
75 166 m 0
 75 261 121 398 253 577 c 1
 241 589 229 602 217 613 c 0
 200 630 206 637 208 641 c 2
 241 694 l 2
 245 700 249 709 257 709 c 0
 261 709 266 706 274 699 c 0
 518 470 598 296 598 178 c 0
 598 60 518 0 443 -0 c 0
 396 0 350 23 327 71 c 1
 296 24 250 1 206 1 c 0
 139 1 75 55 75 166 c 0
157 173 m 0
 157 121 182 99 211 99 c 0
 248 99 290 135 293 193 c 1
 293 210 l 2
 293 215 294 222 306 226 c 2
 357 240 l 1
 366 244 369 232 369 228 c 2
 369 208 l 1
 372 140 415 104 453 104 c 0
 484 104 511 128 511 178 c 0
 511 244 464 355 317 516 c 1
 196 347 157 237 157 173 c 0
EndSplineSet
Colour: ffda6b
EndChar

StartChar: _.num.6.fa
Encoding: 65619 -1 83
GlifName: _.num.6.fa
Width: 619
VWidth: 1331
GlyphClass: 2
Flags: HMW
LayerCount: 2
Fore
SplineSet
75 31 m 0
 75 32 75 33 76 34 c 0
 154 142 212 217 275 276 c 1
 176 316 125 424 125 507 c 0
 125 525 127 541 132 556 c 0
 164 652 249 701 341 701 c 0
 387 701 434 690 478 666 c 0
 495 656 497 654 496 645 c 2
 492 618 l 2
 491 608 489 601 469 605 c 0
 456 607 442 608 428 608 c 0
 338 608 237 572 212 523 c 0
 211 520 212 516 212 513 c 0
 212 455 288 369 361 346 c 1
 405 378 455 407 515 439 c 0
 520 441 525 443 529 443 c 0
 538 443 546 437 544 422 c 2
 539 361 l 2
 538 336 541 329 521 320 c 0
 323 231 264 147 146 -3 c 0
 138 -14 129 -18 121 -18 c 0
 97 -18 75 18 75 31 c 0
EndSplineSet
Colour: ffda6b
EndChar

StartChar: _.num.7
Encoding: 65621 -1 85
GlifName: _.num.7
Width: 674
VWidth: 1331
GlyphClass: 2
Flags: HMW
LayerCount: 2
Fore
SplineSet
75 609 m 0
 75 617 81 623 90 636 c 2
 126 690 l 2
 131 697 135 700 140 700 c 0
 147 700 154 693 158 683 c 0
 227 540 306 360 336 220 c 1
 367 360 447 540 516 683 c 0
 521 693 528 701 535 701 c 0
 539 701 544 698 548 690 c 2
 581 636 l 2
 590 621 599 615 599 606 c 0
 599 602 598 598 594 592 c 0
 482 406 382 196 377 5 c 0
 376 -2 341 -22 318 -22 c 0
 304 -22 298 -11 297 5 c 0
 295 175 177 430 82 592 c 0
 77 599 75 604 75 609 c 0
EndSplineSet
Colour: ffda6b
EndChar

StartChar: _.num.8
Encoding: 65622 -1 86
GlifName: _.num.8
Width: 674
VWidth: 1331
GlyphClass: 2
Flags: HMW
LayerCount: 2
Fore
SplineSet
75 70 m 0
 75 74 77 79 82 86 c 0
 177 248 295 503 297 674 c 0
 298 690 304 700 318 700 c 0
 341 700 376 681 377 674 c 0
 382 482 482 273 594 86 c 0
 598 80 599 76 599 72 c 0
 599 63 590 57 581 42 c 2
 548 -12 l 2
 544 -19 539 -22 535 -22 c 0
 528 -22 521 -14 516 -5 c 0
 447 139 367 319 336 459 c 1
 306 319 227 139 158 -5 c 0
 154 -14 148 -22 140 -22 c 0
 136 -22 131 -19 126 -12 c 2
 90 43 l 2
 81 56 75 62 75 70 c 0
EndSplineSet
Colour: ffda6b
EndChar

StartChar: _.num.9
Encoding: 65623 -1 87
GlifName: _.num.9
Width: 558
VWidth: 1331
GlyphClass: 2
Flags: HMW
LayerCount: 2
Fore
SplineSet
228 320 m 0
 145 320 75 367 75 490 c 0
 75 591 140 700 248 700 c 0
 387 700 413 540 413 374 c 0
 413 370 413 366 413 362 c 0
 422 267 442 176 481 74 c 0
 483 68 483 64 483 60 c 0
 483 50 477 46 465 32 c 2
 425 -15 l 2
 419 -22 414 -24 409 -24 c 0
 402 -24 396 -18 393 -8 c 0
 351 122 335 208 328 338 c 1
 295 327 261 320 228 320 c 0
149 490 m 0
 149 443 187 423 235 423 c 0
 262 423 292 430 324 441 c 1
 318 514 299 595 236 601 c 0
 197 601 149 536 149 490 c 0
EndSplineSet
Colour: ffda6b
EndChar

StartChar: _.sing.backslash
Encoding: 65624 -1 88
GlifName: _.sing.backslash
Width: 553
VWidth: 1197
GlyphClass: 2
Flags: HMW
LayerCount: 2
Fore
SplineSet
75 800 m 1
 176 800 l 1
 478 -1 l 1
 377 -1 l 1
 75 800 l 1
EndSplineSet
Colour: ffda6b
EndChar

StartChar: _.sing.slash
Encoding: 65625 -1 89
GlifName: _.sing.slash
Width: 491
VWidth: 1197
GlyphClass: 2
Flags: HMW
LayerCount: 2
Fore
SplineSet
75 -1 m 1
 315 700 l 1
 416 700 l 1
 176 -1 l 1
 75 -1 l 1
EndSplineSet
Colour: ffda6b
EndChar

StartChar: _.sing.tajob
Encoding: 65626 -1 90
GlifName: _.sing.tajob
Width: 315
VWidth: 1197
GlyphClass: 2
Flags: HMW
LayerCount: 2
Fore
SplineSet
75 84 m 1
 157 166 l 1
 240 84 l 1
 157 1 l 1
 75 84 l 1
101 795 m 1
 199 795 l 1
 183 260 l 1
 117 260 l 1
 101 795 l 1
EndSplineSet
Colour: ffda6b
EndChar

StartChar: _.sing.soal
Encoding: 65627 -1 91
GlifName: _.sing.soal
Width: 531
VWidth: 1304
GlyphClass: 2
Flags: HMW
LayerCount: 2
Fore
SplineSet
75 612 m 0
 75 733 179 802 276 802 c 0
 360 802 441 754 456 657 c 1
 456 541 l 1
 360 541 l 1
 360 631 354 700 256 700 c 0
 217 700 176 674 176 625 c 0
 176 598 187 565 217 525 c 0
 298 419 336 403 336 253 c 1
 229 253 l 1
 229 282 l 2
 229 423 75 482 75 612 c 0
203 84 m 1
 286 166 l 1
 368 84 l 1
 286 1 l 1
 203 84 l 1
EndSplineSet
Colour: ffda6b
EndChar

StartChar: _.sing.beezafeh
Encoding: 65628 -1 92
GlifName: _.sing.beezafeh
Width: 550
VWidth: 1352
GlyphClass: 2
Flags: HMW
LayerCount: 2
Fore
SplineSet
75 250 m 1
 75 351 l 1
 225 351 l 1
 225 501 l 1
 325 501 l 1
 325 351 l 1
 475 351 l 1
 475 250 l 1
 325 250 l 1
 325 101 l 1
 225 101 l 1
 225 250 l 1
 75 250 l 1
EndSplineSet
Colour: ffda6b
EndChar

StartChar: _.sing.menha
Encoding: 65629 -1 93
GlifName: _.sing.menha
Width: 550
VWidth: 0
GlyphClass: 2
Flags: HMW
LayerCount: 2
Fore
SplineSet
75 250 m 1
 75 351 l 1
 475 351 l 1
 475 250 l 1
 75 250 l 1
EndSplineSet
Colour: ffda6b
EndChar

StartChar: _.sing.khateh_tire
Encoding: 65630 -1 94
GlifName: _.sing.khateh_tire
Width: 250
VWidth: 0
GlyphClass: 2
Flags: HMW
LayerCount: 2
Fore
SplineSet
75 -100 m 1
 75 300 l 1
 175 300 l 1
 175 -100 l 1
 75 -100 l 1
75 401 m 1
 75 801 l 1
 175 801 l 1
 175 401 l 1
 75 401 l 1
EndSplineSet
Colour: ffda6b
EndChar

StartChar: _.sing.virgul
Encoding: 65631 -1 95
GlifName: _.sing.virgul
Width: 282
VWidth: 1197
GlyphClass: 2
Flags: HMW
LayerCount: 2
Fore
SplineSet
146 0 m 0
 98 0 75 53 75 99 c 0
 75 160 113 228 170 283 c 1
 207 246 l 1
 187 225 159 195 159 161 c 0
 159 140 173 119 192 100 c 0
 201 90 207 75 207 60 c 0
 207 27 179 0 146 0 c 0
EndSplineSet
Colour: ffda6b
EndChar

StartChar: _.sing.dot_virgul
Encoding: 65632 -1 96
GlifName: _.sing.dot_virgul
Width: 315
VWidth: 1304
GlyphClass: 2
Flags: HMW
LayerCount: 2
Fore
SplineSet
75 84 m 1
 157 166 l 1
 240 84 l 1
 157 1 l 1
 75 84 l 1
160 250 m 0
 112 250 89 304 89 349 c 0
 89 410 126 478 183 533 c 1
 220 496 l 1
 200 475 173 445 173 411 c 0
 173 390 186 368 205 349 c 0
 214 339 220 326 220 310 c 0
 220 277 193 250 160 250 c 0
EndSplineSet
Colour: ffda6b
EndChar

StartChar: _.sing.2noqte
Encoding: 65633 -1 97
GlifName: _.sing.2noqte
Width: 315
VWidth: 1352
GlyphClass: 2
Flags: HMW
LayerCount: 2
Fore
SplineSet
75 84 m 1
 157 166 l 1
 240 84 l 1
 157 1 l 1
 75 84 l 1
75 324 m 1
 157 407 l 1
 240 324 l 1
 157 241 l 1
 75 324 l 1
EndSplineSet
Colour: ffda6b
EndChar

StartChar: _.sing.noqte
Encoding: 65634 -1 98
GlifName: _.sing.noqte
Width: 316
VWidth: 1352
GlyphClass: 2
Flags: HMW
LayerCount: 2
Fore
SplineSet
75 84 m 5
 159 166 l 5
 241 84 l 5
 159 1 l 5
 75 84 l 5
EndSplineSet
Colour: ffda6b
EndChar

StartChar: _.sing.gheiomeh.right
Encoding: 65635 -1 99
GlifName: _.sing.gheiomeh.right
Width: 501
VWidth: 1352
GlyphClass: 2
Flags: HMW
LayerCount: 2
Fore
SplineSet
75 199 m 1
 207 412 l 1
 256 379 l 1
 145 198 l 1
 252 15 l 1
 202 -22 l 1
 75 199 l 1
245 199 m 1
 377 412 l 1
 426 379 l 1
 315 198 l 1
 422 15 l 1
 372 -22 l 1
 245 199 l 1
EndSplineSet
Colour: ffda6b
EndChar

StartChar: _.sing.gheiomeh.left
Encoding: 65636 -1 100
GlifName: _.sing.gheiomeh.left
Width: 501
VWidth: 1352
GlyphClass: 2
Flags: HMW
LayerCount: 2
Fore
SplineSet
75 379 m 1
 124 412 l 1
 255 199 l 1
 128 -22 l 1
 79 15 l 1
 185 198 l 1
 75 379 l 1
245 379 m 1
 294 412 l 1
 426 199 l 1
 299 -22 l 1
 249 15 l 1
 354 198 l 1
 245 379 l 1
EndSplineSet
Colour: ffda6b
EndChar

StartChar: _.sing.parantez.right
Encoding: 65637 -1 101
GlifName: _.sing.parantez.right
Width: 366
VWidth: 1352
GlyphClass: 2
Flags: HMW
LayerCount: 2
Fore
SplineSet
75 334 m 0
 75 487 127 643 240 800 c 1
 291 750 l 1
 205 625 162 479 162 334 c 0
 162 189 205 45 291 -79 c 1
 239 -128 l 1
 132 19 75 175 75 334 c 0
EndSplineSet
Colour: ffda6b
EndChar

StartChar: _.sing.parantez.left
Encoding: 65638 -1 102
GlifName: _.sing.parantez.left
Width: 366
VWidth: 1352
GlyphClass: 2
Flags: HMW
LayerCount: 2
Fore
SplineSet
75 750 m 1
 125 800 l 1
 238 643 291 486 291 333 c 0
 291 174 234 19 128 -128 c 1
 76 -79 l 1
 161 45 204 189 204 334 c 0
 204 479 161 625 75 750 c 1
EndSplineSet
Colour: ffda6b
EndChar

StartChar: _.sing.parantez_tazeeni.right
Encoding: 65639 -1 103
GlifName: _.sing.parantez_tazeeni.right
Width: 553
VWidth: 0
GlyphClass: 2
Flags: HMW
LayerCount: 2
Fore
SplineSet
75 342 m 1
 97 410 l 1
 148 393 l 2
 164 388 180 381 197 375 c 0
 204 371 212 367 221 365 c 1
 225 393 231 423 241 453 c 1
 241 513 l 1
 263 513 l 1
 294 589 341 669 404 759 c 1
 446 719 l 1
 372 612 330 488 319 361 c 1
 346 372 376 384 404 393 c 2
 454 410 l 1
 478 342 l 1
 426 326 l 2
 394 316 358 308 324 298 c 1
 347 272 369 244 390 216 c 2
 422 173 l 1
 364 132 l 1
 334 175 l 2
 332 180 327 183 325 187 c 1
 341 77 382 -28 446 -122 c 1
 405 -160 l 1
 313 -27 254 85 229 191 c 1
 227 186 223 180 219 175 c 2
 187 132 l 1
 130 173 l 1
 161 216 l 1
 179 239 199 263 217 285 c 1
 217 301 l 1
 186 308 157 316 127 326 c 2
 75 342 l 1
EndSplineSet
Colour: ffda6b
EndChar

StartChar: _.sing.koroshe.right
Encoding: 65641 -1 105
GlifName: _.sing.koroshe.right
Width: 357
VWidth: 1197
GlyphClass: 2
Flags: HMW
LayerCount: 2
Fore
SplineSet
75 -202 m 1
 75 798 l 1
 282 798 l 1
 282 714 l 1
 166 714 l 1
 166 -117 l 1
 282 -117 l 1
 282 -202 l 1
 75 -202 l 1
EndSplineSet
Colour: ffda6b
EndChar

StartChar: _.sing.koroshe.left
Encoding: 65642 -1 106
GlifName: _.sing.koroshe.left
Width: 357
VWidth: 1197
GlyphClass: 2
Flags: HMW
LayerCount: 2
Fore
SplineSet
75 -117 m 1
 191 -117 l 1
 191 714 l 1
 75 714 l 1
 75 798 l 1
 282 798 l 1
 282 -202 l 1
 75 -202 l 1
 75 -117 l 1
EndSplineSet
Colour: ffda6b
EndChar

StartChar: _.sing.akolad.right
Encoding: 65643 -1 107
GlifName: _.sing.akolad.right
Width: 455
VWidth: 1197
GlyphClass: 2
Flags: HMW
LayerCount: 2
Fore
SplineSet
75 262 m 1
 75 288 75 314 75 340 c 1
 81 340 86 339 92 339 c 0
 132 339 173 348 173 498 c 2
 173 636 l 2
 173 759 209 800 380 800 c 1
 380 714 l 1
 285 714 267 700 265 598 c 1
 265 454 l 1
 261 325 208 309 169 300 c 1
 208 293 260 284 262 155 c 1
 262 2 l 1
 263 -99 285 -113 380 -113 c 1
 380 -200 l 1
 288 -200 l 2
 194 -200 173 -132 173 -35 c 2
 173 103 l 2
 173 273 119 261 75 262 c 1
EndSplineSet
Colour: ffda6b
EndChar

StartChar: _.sing.akolad.left
Encoding: 65644 -1 108
GlifName: _.sing.akolad.left
Width: 455
VWidth: 1197
GlyphClass: 2
Flags: HMW
LayerCount: 2
Fore
SplineSet
75 262 m 1
 75 288 75 314 75 340 c 1
 81 340 86 339 92 339 c 0
 132 339 173 348 173 498 c 2
 173 636 l 2
 173 759 209 800 380 800 c 1
 380 714 l 1
 285 714 266 700 265 598 c 1
 265 447 l 1
 263 317 208 309 169 300 c 1
 208 293 258 277 262 148 c 1
 262 2 l 1
 264 -99 285 -113 380 -113 c 1
 380 -198 l 1
 209 -198 173 -159 173 -35 c 2
 173 103 l 2
 173 273 119 261 75 262 c 1
EndSplineSet
Colour: ffda6b
EndChar

StartChar: _.mark.maad
Encoding: 65645 -1 109
GlifName: _.mark.maad
Width: 0
VWidth: 1352
GlyphClass: 2
Flags: HMW
LayerCount: 2
Fore
SplineSet
0 26 m 1
 32 92 l 2
 44 119 64 138 89 138 c 0
 95 138 101 137 107 135 c 0
 146 124 179 119 210 119 c 0
 259 119 302 131 359 148 c 1
 366 74 l 1
 310 55 261 42 210 42 c 0
 172 42 131 49 86 65 c 1
 75 45 65 22 54 -0 c 1
 0 26 l 1
EndSplineSet
Colour: ffda6b
EndChar

StartChar: _.mark.fatheh
Encoding: 65646 -1 110
GlifName: _.mark.fatheh
Width: 0
VWidth: 2310
GlyphClass: 2
Flags: HMW
LayerCount: 2
Fore
SplineSet
0 45 m 1
 256 165 l 1
 278 114 l 1
 23 -5 l 1
 0 45 l 1
EndSplineSet
Colour: ffda6b
EndChar

StartChar: _.mark.kasreh
Encoding: 65647 -1 111
GlifName: _.mark.kasreh
Width: 0
VWidth: 2384
GlyphClass: 2
Flags: HMW
LayerCount: 2
Fore
SplineSet
0 -125 m 1
 256 -6 l 1
 278 -56 l 1
 23 -175 l 1
 0 -125 l 1
EndSplineSet
Colour: ffda6b
EndChar

StartChar: _.mark.zameh
Encoding: 65648 -1 112
GlifName: _.mark.zameh
Width: 0
VWidth: 2277
GlyphClass: 2
Flags: HMW
LayerCount: 2
Fore
SplineSet
202 287 m 0
 247 287 279 243 279 196 c 0
 279 155 255 109 193 80 c 2
 23 1 l 1
 0 50 l 1
 143 117 l 1
 124 139 111 165 111 193 c 0
 111 242 146 287 202 287 c 0
165 193 m 0
 165 179 172 164 179 155 c 2
 191 140 l 1
 215 153 229 173 229 191 c 0
 229 206 219 220 197 228 c 1
 173 223 165 208 165 193 c 0
EndSplineSet
Colour: ffda6b
EndChar

StartChar: _.mark.tanvin_fatheh
Encoding: 65649 -1 113
GlifName: _.mark.tanvin_fatheh
Width: 0
VWidth: 2280
GlyphClass: 2
Flags: HMW
LayerCount: 2
Fore
SplineSet
0 49 m 1
 256 168 l 1
 279 118 l 1
 23 -0 l 1
 0 49 l 1
0 170 m 1
 256 289 l 1
 279 240 l 1
 23 120 l 1
 0 170 l 1
EndSplineSet
Colour: ffda6b
EndChar

StartChar: _.mark.tanvin_kasreh
Encoding: 65650 -1 114
GlifName: _.mark.tanvin_kasreh
Width: 0
VWidth: 2413
GlyphClass: 2
Flags: HMW
LayerCount: 2
Fore
SplineSet
0 -120 m 1
 256 -1 l 1
 279 -51 l 1
 23 -170 l 1
 0 -120 l 1
0 -240 m 1
 256 -122 l 1
 279 -171 l 1
 23 -291 l 1
 0 -240 l 1
EndSplineSet
Colour: ffda6b
EndChar

StartChar: _.mark.tanvin_zameh
Encoding: 65651 -1 115
GlifName: _.mark.tanvin_zameh
Width: 0
VWidth: 2273
GlyphClass: 2
Flags: HMW
LayerCount: 2
Fore
SplineSet
226 287 m 0
 271 287 304 243 304 196 c 0
 304 155 280 109 218 80 c 2
 48 1 l 1
 25 50 l 1
 66 70 l 1
 70 79 73 90 73 100 c 0
 73 114 68 125 56 125 c 0
 52 125 48 125 43 122 c 2
 25 111 l 1
 0 151 l 1
 21 164 l 2
 32 170 42 172 51 172 c 0
 88 172 109 130 109 100 c 0
 109 96 109 93 108 90 c 1
 167 117 l 1
 148 139 136 165 136 193 c 0
 136 242 170 287 226 287 c 0
189 193 m 0
 189 179 196 164 203 155 c 2
 215 140 l 1
 239 153 253 173 253 191 c 0
 253 206 244 220 222 228 c 1
 198 223 189 208 189 193 c 0
EndSplineSet
Colour: ffda6b
EndChar

StartChar: _.mark.tashdid
Encoding: 65652 -1 116
GlifName: _.mark.tashdid
Width: 0
VWidth: 1833
GlyphClass: 2
Flags: HMW
LayerCount: 2
Fore
SplineSet
0 91 m 0
 0 112 3 137 10 168 c 1
 54 164 l 1
 47 139 44 118 44 102 c 0
 44 73 54 59 67 59 c 0
 88 59 116 97 119 171 c 1
 161 171 l 1
 162 101 182 70 201 70 c 0
 218 70 233 94 233 138 c 0
 233 152 231 167 228 184 c 1
 275 188 l 1
 278 166 280 146 280 129 c 0
 280 41 240 12 203 12 c 0
 174 12 145 29 140 50 c 1
 130 26 94 3 61 3 c 0
 29 3 0 25 0 91 c 0
EndSplineSet
Colour: ffda6b
EndChar

StartChar: _.mark.hamze
Encoding: 65653 -1 117
GlifName: _.mark.hamze
Width: 0
VWidth: 1841
GlyphClass: 2
Flags: HMW
LayerCount: 2
Fore
SplineSet
0 49 m 1
 74 84 l 1
 47 106 34 138 34 170 c 0
 34 228 75 286 147 286 c 0
 167 286 189 282 213 272 c 1
 202 223 l 1
 185 227 170 229 157 229 c 0
 107 229 84 201 84 171 c 0
 84 146 99 121 127 108 c 1
 256 168 l 1
 278 118 l 1
 23 -0 l 1
 0 49 l 1
EndSplineSet
Colour: ffda6b
EndChar

StartChar: _.mark.sakon
Encoding: 65654 -1 118
GlifName: _.mark.sakon
Width: 0
VWidth: 2099
GlyphClass: 2
Flags: HMW
LayerCount: 2
Fore
SplineSet
81 -0 m 0
 35 0 0 39 0 85 c 0
 0 132 34 168 81 168 c 0
 122 168 144 146 158 118 c 0
 162 108 164 97 164 85 c 0
 164 47 142 18 113 7 c 0
 103 2 93 0 81 -0 c 0
80 120 m 0
 60 120 43 104 43 84 c 0
 43 64 60 47 80 47 c 0
 100 47 118 63 118 84 c 0
 118 104 100 120 80 120 c 0
EndSplineSet
Colour: ffda6b
EndChar

StartChar: _.mark.alef
Encoding: 65655 -1 119
GlifName: _.mark.alef
Width: 0
VWidth: 2091
GlyphClass: 2
Flags: HMW
LayerCount: 2
Fore
SplineSet
0 216 m 1
 50 235 l 1
 81 151 89 92 89 -3 c 1
 41 -3 l 1
 41 83 28 140 0 216 c 1
EndSplineSet
Colour: ffda6b
EndChar

StartChar: _.sing.momaiez
Encoding: 65656 -1 120
GlifName: _.sing.momaiez
Width: 458
VWidth: 1352
GlyphClass: 2
Flags: HMW
LayerCount: 2
Fore
SplineSet
75 -173 m 1
 288 412 l 1
 383 378 l 1
 169 -207 l 1
 75 -173 l 1
EndSplineSet
Colour: ffda6b
EndChar

StartChar: _.sing.hezare
Encoding: 65657 -1 121
GlifName: _.sing.hezare
Width: 272
VWidth: 1197
GlyphClass: 2
Flags: HMW
LayerCount: 2
Fore
SplineSet
75 900 m 1
 197 900 l 1
 155 700 l 1
 116 700 l 1
 75 900 l 1
EndSplineSet
Colour: ffda6b
EndChar

StartChar: _.sing.darsad
Encoding: 65658 -1 122
GlifName: _.sing.darsad
Width: 715
VWidth: 1197
GlyphClass: 2
Flags: HMW
LayerCount: 2
Fore
SplineSet
75 587 m 1
 157 670 l 1
 240 587 l 1
 157 505 l 1
 75 587 l 1
156 -1 m 1
 458 800 l 1
 559 800 l 1
 257 -1 l 1
 156 -1 l 1
474 244 m 1
 558 326 l 1
 640 244 l 1
 558 161 l 1
 474 244 l 1
EndSplineSet
Colour: ffda6b
EndChar

StartChar: _.sing.mosavi
Encoding: 65659 -1 123
GlifName: _.sing.mosavi
Width: 550
VWidth: 1197
GlyphClass: 2
Flags: HMW
LayerCount: 2
Fore
SplineSet
75 200 m 1
 75 300 l 1
 475 300 l 1
 475 200 l 1
 75 200 l 1
75 400 m 1
 75 501 l 1
 474 501 l 1
 474 400 l 1
 75 400 l 1
EndSplineSet
Colour: ffda6b
EndChar

StartChar: _.beh_k.init
Encoding: 65661 -1 125
GlifName: _.beh_k.init
Width: 380
VWidth: 1197
GlyphClass: 2
UnlinkRmOvrlpSave: 1
Flags: HMW
LayerCount: 2
Fore
SplineSet
280 187 m 0
 280 48 164 0 79 -0 c 2
 -1 -0 l 2
 -25 0 -50 24 -50 49 c 0
 -50 76 -27 100 -1 100 c 2
 79 100 l 2
 123 100 185 114 206 134 c 1
 206 135 206 137 206 138 c 0
 206 175 181 264 159 322 c 0
 153 340 156 345 170 357 c 2
 216 396 l 2
 227 405 233 401 238 389 c 0
 266 305 280 239 280 187 c 0
EndSplineSet
Colour: ffda6b
EndChar

StartChar: _.beh_k.medi
Encoding: 65662 -1 126
GlifName: _.beh_k.medi
Width: 435
VWidth: 1304
GlyphClass: 2
UnlinkRmOvrlpSave: 1
Flags: HMW
LayerCount: 2
Fore
SplineSet
-50 50 m 0
 -50 75 -26 100 -1 100 c 2
 48 100 l 2
 126 100 187 112 215 146 c 1
 211 172 209 201 209 234 c 0
 209 244 210 255 210 266 c 0
 210 273 210 285 222 292 c 2
 252 309 l 2
 269 319 270 301 270 290 c 0
 270 164 282 100 410 100 c 2
 435 100 l 1
 435 -0 l 1
 412 -0 l 2
 330 0 279 21 249 59 c 1
 205 10 134 0 42 -0 c 2
 -1 -0 l 1
 -26 1 -50 24 -50 50 c 0
EndSplineSet
Colour: ffda6b
EndChar

StartChar: _.sing.3noqte
Encoding: 65663 -1 127
GlifName: _.sing.3noqte
Width: 766
VWidth: 1304
GlyphClass: 2
Flags: HMW
LayerCount: 2
Fore
SplineSet
75 84 m 1
 159 166 l 1
 240 84 l 1
 159 1 l 1
 75 84 l 1
305 84 m 1
 389 166 l 1
 470 84 l 1
 389 1 l 1
 305 84 l 1
526 84 m 1
 608 166 l 1
 691 84 l 1
 608 1 l 1
 526 84 l 1
EndSplineSet
Colour: ffda6b
EndChar

StartChar: s.khat_tire
Encoding: 8208 8208 138
GlifName: s.khat_tire
Width: 504
VWidth: 0
GlyphClass: 2
Flags: HMW
LayerCount: 2
Fore
SplineSet
55 229 m 1
 55 307 l 1
 451 307 l 1
 451 229 l 1
 55 229 l 1
EndSplineSet
Colour: d7d7d7
EndChar

StartChar: s.zwj
Encoding: 8205 8205 174
GlifName: s.zwj
Width: 0
VWidth: 1331
GlyphClass: 2
Flags: HMW
LayerCount: 2
Fore
SplineSet
25 -327 m 1
 -25 -327 l 1
 -25 579 l 1
 -111 491 l 1
 -141 521 l 1
 -30 631 l 1
 -141 740 l 1
 -111 772 l 1
 0 660 l 1
 111 772 l 1
 141 740 l 1
 30 631 l 1
 141 521 l 1
 111 491 l 1
 25 579 l 1
 25 -327 l 1
EndSplineSet
Colour: d7d7d7
EndChar

StartChar: s.tagsim
Encoding: 247 247 182
GlifName: s.tagsim
Width: 564
VWidth: 1278
GlyphClass: 2
Flags: HMW
LayerCount: 2
Fore
SplineSet
59 352 m 1
 59 429 l 1
 506 429 l 1
 506 352 l 1
 59 352 l 1
234 204 m 1
 234 299 l 1
 330 299 l 1
 330 204 l 1
 234 204 l 1
234 482 m 1
 234 577 l 1
 330 577 l 1
 330 482 l 1
 234 482 l 1
EndSplineSet
Colour: d7d7d7
EndChar

StartChar: s.zwnj
Encoding: 8204 8204 215
GlifName: s.zwnj
Width: 0
VWidth: 1331
GlyphClass: 2
Flags: HMW
LayerCount: 2
Fore
SplineSet
-25 -308 m 1
 -25 710 l 1
 25 710 l 1
 25 -308 l 1
 -25 -308 l 1
EndSplineSet
Colour: d7d7d7
EndChar

StartChar: s.dotted_circle
Encoding: 9676 9676 220
GlifName: s.dotted_circle
Width: 576
VWidth: 1890
GlyphClass: 2
Flags: HMW
LayerCount: 2
Fore
SplineSet
60 181 m 0
 60 196 67 203 82 203 c 0
 97 203 104 196 104 182 c 2
 104 180 l 2
 104 166 97 159 82 159 c 0
 67 159 60 166 60 181 c 0
76 103 m 0
 76 118 83 126 98 126 c 0
 113 126 120 118 120 103 c 0
 120 88 113 80 98 80 c 0
 83 80 76 88 76 103 c 0
76 259 m 0
 76 274 83 282 98 282 c 0
 113 282 120 274 120 259 c 0
 120 244 113 236 99 236 c 0
 84 236 76 244 76 259 c 0
120 34 m 0
 120 49 127 56 142 57 c 0
 157 56 164 49 165 34 c 0
 164 19 157 12 142 12 c 0
 127 12 120 19 120 34 c 0
120 326 m 0
 120 341 127 348 142 349 c 0
 157 348 164 341 165 326 c 0
 164 311 157 304 142 304 c 0
 127 304 120 311 120 326 c 0
187 -8 m 0
 187 7 195 14 210 14 c 0
 225 14 233 7 233 -8 c 0
 233 -23 225 -30 210 -30 c 0
 195 -30 187 -23 187 -8 c 0
187 372 m 0
 187 387 195 394 210 394 c 0
 225 394 233 387 233 372 c 0
 233 357 225 350 210 350 c 0
 195 350 187 357 187 372 c 0
310 -26 m 0
 310 -41 303 -48 288 -48 c 0
 273 -48 266 -41 265 -26 c 0
 266 -11 273 -4 288 -3 c 0
 303 -4 310 -11 310 -26 c 0
288 410 m 0
 303 410 310 403 310 388 c 0
 310 373 303 366 288 365 c 0
 273 366 266 373 265 388 c 0
 266 403 273 410 288 410 c 0
344 -8 m 0
 344 7 352 14 367 14 c 0
 382 14 390 7 390 -8 c 0
 390 -22 382 -30 367 -31 c 0
 352 -30 344 -22 344 -8 c 0
344 372 m 0
 344 387 352 394 367 394 c 0
 382 394 390 387 390 372 c 0
 390 358 382 350 367 349 c 0
 352 350 344 358 344 372 c 0
412 34 m 0
 412 49 419 56 434 57 c 0
 449 56 456 49 456 34 c 0
 456 19 449 12 434 12 c 0
 419 12 412 19 412 34 c 0
412 326 m 0
 412 341 419 348 434 349 c 0
 449 348 456 341 456 326 c 0
 456 311 449 304 434 304 c 0
 419 304 412 311 412 326 c 0
456 103 m 0
 456 118 463 126 478 126 c 0
 492 126 500 118 501 103 c 0
 500 88 492 80 478 80 c 0
 463 80 456 88 456 103 c 0
456 259 m 0
 456 274 463 282 478 282 c 0
 492 282 500 274 501 259 c 0
 500 244 492 236 478 236 c 0
 463 236 456 244 456 259 c 0
472 181 m 0
 472 196 479 203 494 203 c 0
 509 203 516 196 517 182 c 2
 517 180 l 2
 516 166 509 159 494 159 c 0
 479 159 472 166 472 181 c 0
EndSplineSet
Colour: d7d7d7
EndChar

StartChar: s.figure_dash
Encoding: 8210 8210 224
GlifName: s.figure_dash
Width: 600
VWidth: 0
GlyphClass: 2
Flags: HMW
LayerCount: 2
Fore
SplineSet
55 229 m 1
 55 307 l 1
 547 307 l 1
 547 229 l 1
 55 229 l 1
EndSplineSet
Colour: d7d7d7
EndChar

StartChar: s.em_dash
Encoding: 8212 8212 263
GlifName: s.em_dash
Width: 1200
VWidth: 1175
GlyphClass: 2
Flags: HMW
LayerCount: 2
Fore
SplineSet
55 229 m 1
 55 307 l 1
 1147 307 l 1
 1147 229 l 1
 55 229 l 1
EndSplineSet
Colour: d7d7d7
EndChar

StartChar: s.bullet
Encoding: 8226 8226 278
GlifName: s.bullet
Width: 602
VWidth: 1331
GlyphClass: 2
Flags: HMW
LayerCount: 2
Fore
SplineSet
532 432 m 0
 532 369 509 315 464 270 c 0
 419 225 365 202 302 202 c 0
 245 202 194 223 147 266 c 0
 100 309 77 357 77 410 c 0
 77 483 99 542 142 585 c 0
 185 628 236 650 295 650 c 0
 368 650 426 630 468 591 c 0
 510 552 532 499 532 432 c 0
EndSplineSet
Colour: d7d7d7
EndChar

StartChar: s.en_dash
Encoding: 8211 8211 310
GlifName: s.en_dash
Width: 600
VWidth: 1175
GlyphClass: 2
Flags: HMW
LayerCount: 2
Fore
SplineSet
55 229 m 1
 55 307 l 1
 547 307 l 1
 547 229 l 1
 55 229 l 1
EndSplineSet
Colour: d7d7d7
EndChar

StartChar: s.horizontal_bar
Encoding: 8213 8213 316
GlifName: s.horizontal_bar
Width: 2400
VWidth: 1175
GlyphClass: 2
Flags: HMW
LayerCount: 2
Fore
SplineSet
55 229 m 1
 55 307 l 1
 2347 307 l 1
 2347 229 l 1
 55 229 l 1
EndSplineSet
Colour: d7d7d7
EndChar

StartChar: s.lrm
Encoding: 8206 8206 317
GlifName: s.lrm
Width: 0
VWidth: 1331
GlyphClass: 2
Flags: HMW
LayerCount: 2
Fore
SplineSet
-25 -308 m 1
 -25 676 l 1
 196 676 l 1
 106 759 l 1
 138 790 l 1
 280 651 l 1
 138 510 l 1
 106 544 l 1
 196 628 l 1
 22 628 l 1
 22 -308 l 1
 -25 -308 l 1
EndSplineSet
Colour: d7d7d7
EndChar

StartChar: s.rlm
Encoding: 8207 8207 346
GlifName: s.rlm
Width: 0
VWidth: 1331
GlyphClass: 2
Flags: HMW
LayerCount: 2
Fore
SplineSet
22 676 m 1
 22 -308 l 1
 -25 -308 l 1
 -25 628 l 1
 -196 628 l 1
 -108 544 l 1
 -138 510 l 1
 -280 651 l 1
 -138 790 l 1
 -108 759 l 1
 -196 676 l 1
 22 676 l 1
EndSplineSet
Colour: d7d7d7
EndChar

StartChar: _.sing.yeh_domBoride
Encoding: 65664 -1 400
GlifName: _.mark.he_yeh
Width: 376
VWidth: 1304
GlyphClass: 1
UnlinkRmOvrlpSave: 1
Flags: HMW
LayerCount: 2
Fore
SplineSet
267 89 m 2
 267 90 l 2
 267 95 259 100 242 104 c 0
 228 107 219 109 216 109 c 0
 197 114 188 124 188 141 c 0
 188 176 210 207 253 234 c 0
 266 241 277 245 285 245 c 1
 285 200 l 1
 261 200 240 187 222 162 c 1
 220 156 l 2
 220 152 232 146 255 138 c 0
 280 130 293 124 296 120 c 0
 299 115 301 106 301 92 c 0
 301 77 294 62 281 49 c 0
 244 12 176 -6 75 -6 c 1
 92 42 l 1
 171 42 225 53 253 75 c 0
 262 82 267 87 267 89 c 2
EndSplineSet
EndChar

StartChar: uni0000
Encoding: 0 0 401
GlifName: uni0000
Width: 497
VWidth: 0
GlyphClass: 2
Flags: HMW
LayerCount: 2
Fore
SplineSet
59 -251 m 1
 59 709 l 1
 438 709 l 1
 438 -251 l 1
 59 -251 l 1
105 -181 m 1
 387 -181 l 1
 387 648 l 1
 105 648 l 1
 105 -181 l 1
EndSplineSet
EndChar

StartChar: _.ghaf.medi
Encoding: 65665 -1 402
GlifName: _.ghaf.medi
Width: 578
VWidth: 0
GlyphClass: 2
Flags: HMW
LayerCount: 2
Fore
SplineSet
-50 48 m 0
 -50 74 -28 99 -2 100 c 1
 108 100 l 2
 198 100 237 115 269 140 c 1
 269 188 242 245 195 304 c 1
 126 378 l 1
 93 410 55 442 13 474 c 0
 1 484 -11 497 -11 509 c 0
 -11 510 -11 512 -11 513 c 2
 14 576 l 1
 22 599 25 608 71 629 c 1
 440 738 l 2
 442 739 443 739 445 739 c 0
 451 739 454 735 454 727 c 0
 454 719 451 706 446 689 c 0
 435 655 431 635 414 630 c 2
 96 533 l 1
 133 502 166 473 194 444 c 1
 444 171 l 2
 483 127 519 100 578 100 c 1
 578 -0 l 1
 498 0 446 33 391 92 c 2
 328 160 l 1
 327 156 327 152 326 148 c 0
 321 61 225 0 129 -0 c 2
 -2 -0 l 1
 -26 1 -50 23 -50 48 c 0
52 711 m 0
 52 727 72 760 81 763 c 2
 364 855 l 2
 365 855 366 856 367 856 c 0
 370 856 371 854 371 850 c 0
 371 835 347 796 329 790 c 2
 65 704 l 2
 63 703 61 703 59 703 c 0
 54 703 52 706 52 711 c 0
EndSplineSet
Colour: ffda6b
EndChar

StartChar: _.ghaf.init
Encoding: 65666 -1 403
GlifName: _.ghaf.init
Width: 554
VWidth: 0
GlyphClass: 2
Flags: HMW
LayerCount: 2
Fore
SplineSet
-50 48 m 0
 -50 74 -28 99 -2 100 c 1
 108 100 l 2
 198 100 237 115 269 140 c 1
 269 234 166 358 13 474 c 0
 1 484 -11 497 -11 509 c 0
 -11 510 -11 512 -11 513 c 2
 14 575 l 1
 21 598 24 608 71 629 c 1
 440 738 l 2
 442 739 443 739 445 739 c 0
 451 739 454 735 454 727 c 0
 454 719 451 706 446 689 c 0
 435 655 431 635 414 630 c 2
 97 533 l 1
 258 401 330 285 330 187 c 0
 330 173 329 161 326 148 c 1
 321 61 225 0 129 -0 c 2
 -2 -0 l 1
 -26 1 -50 23 -50 48 c 0
52 711 m 0
 52 727 72 760 81 763 c 2
 364 855 l 2
 365 855 366 856 367 856 c 0
 370 856 371 854 371 850 c 0
 371 835 347 796 329 790 c 2
 65 704 l 2
 63 703 61 703 59 703 c 0
 54 703 52 706 52 711 c 0
EndSplineSet
Colour: ffda6b
EndChar

StartChar: _.la.isol.fa
Encoding: 65667 -1 404
Width: 562
VWidth: 0
Flags: HMW
LayerCount: 2
Fore
SplineSet
81 100 m 0
 100 100 121 97 140 97 c 0
 309 97 421 182 421 247 c 0
 421 248 421 248 421 249 c 2
 404 715 l 2
 404 724 403 729 403 734 c 0
 403 744 406 748 419 759 c 2
 458 793 l 2
 464 798 470 800 474 800 c 0
 482 800 487 794 487 782 c 2
 487 220 l 2
 487 114 334 -1 212 -1 c 0
 161 -1 115 19 88 69 c 0
 80 84 75 93 75 97 c 0
 75 100 77 100 81 100 c 0
173 170 m 0
 173 181 174 192 174 203 c 0
 174 321 131 459 88 594 c 0
 86 600 84 606 84 610 c 0
 84 618 89 625 103 642 c 2
 125 670 l 2
 137 685 148 682 153 668 c 0
 189 563 238 392 238 277 c 0
 238 239 233 206 220 184 c 0
 216 177 194 154 182 154 c 0
 177 154 173 158 173 170 c 0
EndSplineSet
Colour: ffda6b
EndChar

StartChar: _.la.fina.fa
Encoding: 65668 -1 405
Width: 636
VWidth: 0
Flags: HMW
LayerCount: 2
Fore
SplineSet
81 100 m 0
 100 100 121 97 140 97 c 0
 302 97 411 173 421 237 c 1
 404 715 l 2
 404 724 403 729 403 734 c 0
 403 744 406 748 419 759 c 2
 458 793 l 2
 464 798 470 800 474 800 c 0
 482 800 487 794 487 782 c 2
 487 279 l 1
 497 172 557 100 636 100 c 1
 636 0 l 1
 531 0 474 52 446 118 c 1
 391 51 295 -2 212 -2 c 0
 161 -2 115 19 88 69 c 0
 80 84 75 93 75 97 c 0
 75 100 77 100 81 100 c 0
173 170 m 0
 173 181 174 192 174 203 c 0
 174 321 131 459 88 594 c 0
 86 600 84 606 84 610 c 0
 84 618 89 625 103 642 c 2
 125 670 l 2
 137 685 148 682 153 668 c 0
 189 563 238 392 238 277 c 0
 238 239 233 206 220 184 c 0
 216 177 194 154 182 154 c 0
 177 154 173 158 173 170 c 0
EndSplineSet
Colour: ffda6b
EndChar

StartChar: _.sing.alef_maad
Encoding: 65671 -1 408
Width: 535
VWidth: 1352
Flags: HMW
LayerCount: 2
Fore
SplineSet
75 -33 m 0
 75 85 156 98 242 98 c 0
 269 98 297 97 322 97 c 0
 375 97 419 103 433 141 c 0
 435 147 440 150 444 149 c 0
 460 140 461 138 459 120 c 0
 448 15 378 -1 303 -1 c 0
 270 -1 235 2 204 2 c 0
 154 2 113 -6 98 -48 c 0
 96 -55 88 -53 82 -49 c 0
 78 -45 75 -43 75 -33 c 0
EndSplineSet
Colour: ffda6b
EndChar

StartChar: _.sing.star
Encoding: 65672 -1 409
Width: 553
VWidth: 1197
Flags: HMW
LayerCount: 2
Fore
SplineSet
75 543 m 1
 97 609 l 1
 148 593 l 2
 161 589 179 582 202 572 c 0
 225 562 240 557 246 555 c 1
 245 561 245 570 244 582 c 0
 243 594 243 603 242 609 c 0
 242 615 241 624 241 635 c 0
 241 646 241 655 241 660 c 2
 241 714 l 1
 311 714 l 1
 311 660 l 2
 311 623 309 588 305 555 c 1
 315 558 331 565 354 574 c 0
 377 583 393 590 404 593 c 2
 455 609 l 1
 478 543 l 1
 426 525 l 2
 415 522 398 518 375 512 c 0
 352 506 335 501 324 498 c 1
 330 491 352 464 390 417 c 1
 422 373 l 1
 366 332 l 1
 334 375 l 2
 314 402 295 432 277 463 c 1
 241 408 222 379 219 375 c 2
 187 332 l 1
 130 373 l 1
 161 417 l 2
 170 426 192 453 228 498 c 1
 217 501 200 506 177 512 c 0
 154 518 138 522 127 525 c 2
 75 543 l 1
EndSplineSet
Colour: ffda6b
EndChar

StartChar: _.sing.zarb
Encoding: 65673 -1 410
Width: 503
VWidth: 1279
Flags: HMW
LayerCount: 2
Fore
SplineSet
75 194 m 1
 181 300 l 1
 75 406 l 1
 146 477 l 1
 252 372 l 1
 358 477 l 1
 428 406 l 1
 322 300 l 1
 428 194 l 1
 358 123 l 1
 252 230 l 1
 146 123 l 1
 75 194 l 1
EndSplineSet
Colour: ffda6b
EndChar

StartChar: _.sing.khateh_amoodi
Encoding: 65674 -1 411
Width: 250
VWidth: 1331
Flags: HMW
LayerCount: 2
Fore
SplineSet
75 0 m 1
 75 341 l 1
 175 341 l 1
 175 0 l 1
 75 0 l 1
75 460 m 1
 75 801 l 1
 175 801 l 1
 175 460 l 1
 75 460 l 1
EndSplineSet
Colour: ffda6b
EndChar

StartChar: _.num.0.fa
Encoding: 65675 -1 412
Width: 373
VWidth: 1424
Flags: HW
LayerCount: 2
Fore
SplineSet
191 187 m 0
 112 187 75 256 75 322 c 0
 75 391 114 460 187 460 c 0
 259 460 298 387 298 317 c 0
 298 251 264 187 191 187 c 0
139 323 m 0
 139 294 155 264 186 264 c 0
 218 264 233 293 233 322 c 0
 233 352 217 382 186 383 c 0
 155 383 139 353 139 323 c 0
EndSplineSet
Colour: ffda6b
EndChar

StartChar: _.num.0.ar
Encoding: 65676 -1 413
Width: 372
VWidth: 1352
Flags: HW
LayerCount: 2
Fore
SplineSet
75 241 m 1
 118 271 156 308 186 352 c 1
 212 305 248 268 297 241 c 1
 256 211 218 176 186 130 c 1
 156 177 118 213 75 241 c 1
EndSplineSet
Colour: ffda6b
EndChar
